<?xml version="1.0" encoding="UTF-8" standalone="no"?>
<!DOCTYPE svg PUBLIC "-//W3C//DTD SVG 1.1//EN" "http://www.w3.org/Graphics/SVG/1.1/DTD/svg11.dtd">
<svg width="100%" height="100%" viewBox="0 0 5985 1309" version="1.1" xmlns="http://www.w3.org/2000/svg" xmlns:xlink="http://www.w3.org/1999/xlink" xml:space="preserve" xmlns:serif="http://www.serif.com/" style="fill-rule:evenodd;clip-rule:evenodd;stroke-linejoin:round;stroke-miterlimit:2;">
    <g id="Artboard1" transform="matrix(2.21294,0,0,1,0,0)">
        <rect x="0" y="0" width="2704.17" height="1308.33" style="fill:none;"/>
        <clipPath id="_clip1">
            <rect x="0" y="0" width="2704.17" height="1308.33"/>
        </clipPath>
        <g clip-path="url(#_clip1)">
            <g transform="matrix(1.88286,0,0,4.16667,0,0)">
                <path d="M159.299,314L168.262,314L168.262,0.22L159.299,0.22L159.299,314ZM35.878,122.232C34.111,121.676 32.48,121.639 32.48,121.639C24.151,121.639 24.882,129.219 24.882,129.219C25.123,128.292 26.896,128.194 26.896,128.194C29.766,128.194 29.723,130.51 29.723,130.51C29.723,133.598 25.958,133.636 25.958,133.636C19.944,133.499 20.463,126.297 20.463,126.297C20.463,126.297 21.145,115.153 34.371,115.851C34.371,115.851 51.197,114.813 52.405,136.94C52.405,136.94 51.892,146.904 50.172,151.37L93.635,151.37C94.147,131.98 84.007,114.295 84.007,114.295C68.719,88.394 40.551,89.926 40.551,89.926C-1.536,91.31 0.013,122.701 0.013,122.701C-0.672,149.122 25.092,148.269 25.092,148.269C42.796,147.905 42.607,133.172 42.607,133.172C42.796,123.74 35.878,122.232 35.878,122.232ZM28.493,269.008L54.434,249.635L71.474,269.154L88.44,249.595L114.382,269.131L98.922,184.081L44.118,184.081L28.493,269.008ZM37.864,162.82C30.988,162.82 30.818,172.432 37.755,172.432L105.838,172.432C112.784,172.432 112.612,162.82 105.749,162.82L37.864,162.82ZM44.384,153.971C39.912,153.971 40.091,159.974 44.214,159.974L99.092,159.974C103.203,159.974 103.383,153.971 98.917,153.971L44.384,153.971ZM41.697,175.26C37.231,175.26 37.406,181.265 41.53,181.265L102.678,181.265C106.79,181.265 106.987,175.26 102.497,175.26L41.697,175.26ZM402.873,249.676L393.326,249.676L393.326,213.595L402.193,213.595L402.193,218.724C403.709,216.303 405.075,214.705 406.287,213.935C407.499,213.165 408.875,212.779 410.415,212.779C412.589,212.779 414.684,213.381 416.7,214.58L413.744,222.904C412.135,221.863 410.641,221.342 409.259,221.342C407.922,221.342 406.791,221.709 405.862,222.445C404.933,223.181 404.203,224.513 403.67,226.437C403.138,228.363 402.873,232.394 402.873,238.533L402.873,249.676ZM374.352,249.676L374.352,244.273C373.039,246.199 371.312,247.717 369.171,248.826C367.031,249.935 364.772,250.492 362.393,250.492C359.969,250.492 357.795,249.959 355.871,248.894C353.945,247.83 352.552,246.336 351.691,244.41C350.831,242.484 350.4,239.824 350.4,236.426L350.4,213.595L359.947,213.595L359.947,230.176C359.947,235.248 360.123,238.357 360.474,239.5C360.825,240.644 361.464,241.551 362.393,242.219C363.322,242.887 364.5,243.22 365.926,243.22C367.557,243.22 369.018,242.773 370.309,241.879C371.6,240.984 372.484,239.875 372.959,238.549C373.435,237.224 373.673,233.98 373.673,228.816L373.673,213.595L383.22,213.595L383.22,249.676L374.352,249.676ZM343.353,213.595L343.353,221.205L336.83,221.205L336.83,235.746C336.83,238.691 336.892,240.406 337.017,240.894C337.141,241.381 337.424,241.783 337.866,242.099C338.308,242.418 338.845,242.576 339.48,242.576C340.363,242.576 341.642,242.269 343.319,241.658L344.134,249.064C341.915,250.015 339.4,250.492 336.592,250.492C334.871,250.492 333.319,250.203 331.937,249.625C330.555,249.047 329.542,248.301 328.897,247.383C328.251,246.465 327.803,245.226 327.555,243.662C327.351,242.553 327.249,240.31 327.249,236.935L327.249,221.205L322.866,221.205L322.866,213.595L327.249,213.595L327.249,206.427L336.83,200.854L336.83,213.595L343.353,213.595ZM306.849,249.676L306.849,199.869L316.396,199.869L316.396,249.676L306.849,249.676ZM287.469,249.676L287.469,244.273C286.156,246.199 284.429,247.717 282.289,248.826C280.148,249.935 277.889,250.492 275.51,250.492C273.086,250.492 270.913,249.959 268.988,248.894C267.062,247.83 265.669,246.336 264.808,244.41C263.948,242.484 263.517,239.824 263.517,236.426L263.517,213.595L273.064,213.595L273.064,230.176C273.064,235.248 273.24,238.357 273.591,239.5C273.942,240.644 274.582,241.551 275.51,242.219C276.439,242.887 277.617,243.22 279.043,243.22C280.674,243.22 282.135,242.773 283.426,241.879C284.717,240.984 285.601,239.875 286.077,238.549C286.552,237.224 286.791,233.98 286.791,228.816L286.791,213.595L296.337,213.595L296.337,249.676L287.469,249.676ZM213.05,249.676L213.05,199.869L223.107,199.869L223.107,221.986L243.423,199.869L256.946,199.869L238.192,219.269L257.963,249.676L244.953,249.676L231.26,226.301L223.107,234.625L223.107,249.676L213.05,249.676ZM648.14,122.127L648.783,126.056C647.531,126.319 646.411,126.451 645.422,126.451C643.808,126.451 642.556,126.196 641.667,125.685C640.777,125.175 640.151,124.503 639.789,123.672C639.426,122.84 639.246,121.089 639.246,118.421L639.246,103.324L635.984,103.324L635.984,99.865L639.246,99.865L639.246,93.366L643.668,90.698L643.668,99.865L648.14,99.865L648.14,103.324L643.668,103.324L643.668,118.668C643.668,119.936 643.747,120.752 643.903,121.114C644.059,121.477 644.315,121.765 644.668,121.979C645.023,122.193 645.53,122.3 646.189,122.3C646.683,122.3 647.333,122.242 648.14,122.127ZM613.049,113.01C613.049,116.37 613.757,118.882 615.174,120.546C616.59,122.21 618.263,123.041 620.19,123.041C622.133,123.041 623.786,122.247 625.144,120.657C626.503,119.068 627.183,116.642 627.183,113.38C627.183,109.789 626.491,107.154 625.107,105.473C623.723,103.793 622.019,102.953 619.993,102.953C618.016,102.953 616.364,103.761 615.039,105.374C613.712,106.989 613.049,109.534 613.049,113.01ZM627.109,126.105L627.109,122.794C625.445,125.397 622.999,126.698 619.77,126.698C617.678,126.698 615.755,126.121 614,124.969C612.247,123.816 610.887,122.205 609.923,120.138C608.96,118.071 608.478,115.695 608.478,113.01C608.478,110.39 608.915,108.014 609.788,105.881C610.661,103.748 611.97,102.113 613.716,100.976C615.462,99.84 617.415,99.272 619.573,99.272C621.154,99.272 622.562,99.606 623.797,100.272C625.033,100.939 626.038,101.808 626.812,102.879L626.812,89.883L631.235,89.883L631.235,126.105L627.109,126.105ZM598.491,112.935C596.876,113.595 594.456,114.155 591.227,114.616C589.398,114.879 588.105,115.176 587.347,115.505C586.589,115.835 586.004,116.317 585.593,116.95C585.181,117.585 584.975,118.289 584.975,119.063C584.975,120.249 585.424,121.238 586.322,122.028C587.219,122.819 588.534,123.214 590.263,123.214C591.976,123.214 593.5,122.84 594.834,122.09C596.168,121.341 597.148,120.315 597.775,119.014C598.252,118.009 598.491,116.527 598.491,114.566L598.491,112.935ZM598.862,122.868C597.214,124.269 595.628,125.257 594.105,125.833C592.582,126.41 590.947,126.698 589.201,126.698C586.318,126.698 584.102,125.994 582.554,124.586C581.005,123.177 580.231,121.378 580.231,119.187C580.231,117.902 580.524,116.728 581.109,115.666C581.693,114.603 582.458,113.751 583.407,113.108C584.353,112.466 585.42,111.98 586.606,111.651C587.479,111.42 588.796,111.198 590.56,110.984C594.151,110.555 596.794,110.045 598.491,109.451C598.507,108.842 598.516,108.455 598.516,108.29C598.516,106.478 598.096,105.201 597.255,104.46C596.119,103.456 594.43,102.953 592.19,102.953C590.098,102.953 588.554,103.32 587.557,104.053C586.561,104.786 585.824,106.083 585.346,107.944L580.998,107.351C581.393,105.49 582.043,103.987 582.95,102.842C583.855,101.697 585.165,100.816 586.878,100.198C588.591,99.581 590.576,99.272 592.833,99.272C595.073,99.272 596.893,99.535 598.293,100.063C599.694,100.59 600.723,101.252 601.382,102.051C602.041,102.85 602.502,103.859 602.766,105.078C602.914,105.836 602.988,107.203 602.988,109.179L602.988,115.11C602.988,119.245 603.083,121.86 603.272,122.955C603.461,124.051 603.836,125.101 604.397,126.105L599.751,126.105C599.29,125.183 598.994,124.104 598.862,122.868ZM577.136,122.127L577.779,126.056C576.527,126.319 575.407,126.451 574.418,126.451C572.804,126.451 571.552,126.196 570.663,125.685C569.773,125.175 569.147,124.503 568.785,123.672C568.422,122.84 568.242,121.089 568.242,118.421L568.242,103.324L564.98,103.324L564.98,99.865L568.242,99.865L568.242,93.366L572.665,90.698L572.665,99.865L577.136,99.865L577.136,103.324L572.665,103.324L572.665,118.668C572.665,119.936 572.743,120.752 572.899,121.114C573.055,121.477 573.311,121.765 573.665,121.979C574.019,122.193 574.526,122.3 575.185,122.3C575.679,122.3 576.33,122.242 577.136,122.127ZM532.359,114.468L536.88,114.072C537.094,115.884 537.592,117.371 538.375,118.532C539.158,119.693 540.373,120.632 542.02,121.349C543.667,122.065 545.52,122.424 547.58,122.424C549.408,122.424 551.022,122.152 552.422,121.608C553.822,121.065 554.864,120.32 555.548,119.372C556.231,118.425 556.574,117.391 556.574,116.271C556.574,115.135 556.244,114.142 555.585,113.294C554.926,112.446 553.838,111.733 552.324,111.157C551.351,110.778 549.202,110.189 545.875,109.39C542.546,108.591 540.216,107.837 538.881,107.129C537.152,106.223 535.863,105.099 535.015,103.756C534.167,102.414 533.743,100.911 533.743,99.247C533.743,97.419 534.261,95.71 535.299,94.12C536.336,92.531 537.852,91.324 539.845,90.5C541.838,89.677 544.054,89.265 546.492,89.265C549.177,89.265 551.545,89.697 553.596,90.562C555.647,91.427 557.224,92.699 558.328,94.38C559.431,96.06 560.024,97.962 560.107,100.087L555.511,100.433C555.264,98.144 554.427,96.414 553.002,95.244C551.578,94.075 549.473,93.49 546.69,93.49C543.791,93.49 541.678,94.021 540.352,95.084C539.026,96.146 538.363,97.427 538.363,98.926C538.363,100.227 538.833,101.298 539.771,102.137C540.694,102.978 543.103,103.839 546.999,104.72C550.894,105.601 553.567,106.371 555.017,107.03C557.125,108.002 558.682,109.233 559.687,110.724C560.691,112.215 561.194,113.932 561.194,115.876C561.194,117.803 560.642,119.619 559.539,121.324C558.435,123.029 556.849,124.355 554.782,125.302C552.714,126.249 550.387,126.723 547.801,126.723C544.524,126.723 541.777,126.245 539.561,125.29C537.345,124.335 535.608,122.897 534.348,120.978C533.087,119.059 532.424,116.889 532.359,114.468ZM514.638,115.233L514.638,110.761L528.302,110.761L528.302,115.233L514.638,115.233ZM504.824,126.105L504.824,89.883L509.271,89.883L509.271,126.105L504.824,126.105ZM479.937,110.465L494.589,110.465C494.391,108.258 493.832,106.602 492.909,105.498C491.492,103.785 489.656,102.928 487.399,102.928C485.356,102.928 483.639,103.612 482.248,104.979C480.855,106.346 480.085,108.175 479.937,110.465ZM494.54,117.655L499.135,118.223C498.411,120.908 497.068,122.992 495.108,124.474C493.148,125.957 490.644,126.698 487.596,126.698C483.758,126.698 480.715,125.516 478.466,123.153C476.218,120.789 475.094,117.474 475.094,113.207C475.094,108.793 476.231,105.366 478.503,102.928C480.777,100.491 483.725,99.272 487.349,99.272C490.858,99.272 493.724,100.466 495.948,102.854C498.172,105.243 499.284,108.603 499.284,112.935C499.284,113.199 499.275,113.595 499.259,114.121L479.69,114.121C479.854,117.004 480.669,119.212 482.136,120.743C483.602,122.275 485.43,123.041 487.622,123.041C489.252,123.041 490.644,122.613 491.797,121.757C492.95,120.9 493.864,119.533 494.54,117.655ZM449.292,118.273L453.691,117.581C453.938,119.344 454.625,120.694 455.753,121.633C456.882,122.572 458.459,123.041 460.486,123.041C462.528,123.041 464.043,122.626 465.032,121.794C466.02,120.962 466.514,119.986 466.514,118.866C466.514,117.861 466.078,117.07 465.205,116.493C464.595,116.098 463.08,115.596 460.659,114.986C457.397,114.163 455.136,113.45 453.876,112.849C452.616,112.248 451.661,111.416 451.009,110.353C450.359,109.291 450.034,108.117 450.034,106.832C450.034,105.663 450.301,104.58 450.836,103.583C451.372,102.587 452.101,101.759 453.024,101.1C453.715,100.59 454.658,100.157 455.853,99.803C457.046,99.449 458.328,99.272 459.695,99.272C461.753,99.272 463.562,99.569 465.119,100.161C466.675,100.754 467.824,101.557 468.565,102.57C469.307,103.583 469.817,104.938 470.097,106.635L465.749,107.228C465.551,105.877 464.978,104.823 464.032,104.065C463.083,103.307 461.746,102.928 460.016,102.928C457.973,102.928 456.515,103.266 455.643,103.941C454.769,104.617 454.333,105.408 454.333,106.313C454.333,106.89 454.514,107.409 454.876,107.87C455.239,108.348 455.807,108.743 456.582,109.056C457.026,109.221 458.335,109.6 460.51,110.193C463.657,111.033 465.851,111.721 467.095,112.256C468.338,112.791 469.315,113.57 470.023,114.591C470.731,115.613 471.085,116.881 471.085,118.396C471.085,119.879 470.653,121.275 469.789,122.584C468.923,123.894 467.676,124.907 466.045,125.623C464.415,126.34 462.569,126.698 460.51,126.698C457.1,126.698 454.501,125.99 452.714,124.574C450.927,123.157 449.787,121.056 449.292,118.273ZM439.478,112.935C437.864,113.595 435.443,114.155 432.214,114.616C430.385,114.879 429.092,115.176 428.334,115.505C427.577,115.835 426.992,116.317 426.581,116.95C426.168,117.585 425.962,118.289 425.962,119.063C425.962,120.249 426.412,121.238 427.309,122.028C428.207,122.819 429.521,123.214 431.25,123.214C432.963,123.214 434.487,122.84 435.822,122.09C437.156,121.341 438.135,120.315 438.762,119.014C439.24,118.009 439.478,116.527 439.478,114.566L439.478,112.935ZM439.849,122.868C438.202,124.269 436.616,125.257 435.092,125.833C433.569,126.41 431.934,126.698 430.188,126.698C427.305,126.698 425.089,125.994 423.542,124.586C421.993,123.177 421.218,121.378 421.218,119.187C421.218,117.902 421.511,116.728 422.096,115.666C422.68,114.603 423.446,113.751 424.394,113.108C425.34,112.466 426.408,111.98 427.593,111.651C428.466,111.42 429.784,111.198 431.547,110.984C435.138,110.555 437.782,110.045 439.478,109.451C439.495,108.842 439.503,108.455 439.503,108.29C439.503,106.478 439.083,105.201 438.243,104.46C437.106,103.456 435.417,102.953 433.177,102.953C431.085,102.953 429.542,103.32 428.544,104.053C427.548,104.786 426.811,106.083 426.333,107.944L421.985,107.351C422.38,105.49 423.031,103.987 423.937,102.842C424.842,101.697 426.152,100.816 427.866,100.198C429.579,99.581 431.563,99.272 433.82,99.272C436.06,99.272 437.88,99.535 439.281,100.063C440.681,100.59 441.71,101.252 442.37,102.051C443.028,102.85 443.49,103.859 443.753,105.078C443.901,105.836 443.975,107.203 443.975,109.179L443.975,115.11C443.975,119.245 444.07,121.86 444.259,122.955C444.449,124.051 444.824,125.101 445.384,126.105L440.739,126.105C440.277,125.183 439.981,124.104 439.849,122.868ZM393.885,121.831L402.904,121.831C404.452,121.831 405.54,121.773 406.166,121.658C407.269,121.46 408.192,121.131 408.933,120.669C409.674,120.208 410.284,119.537 410.761,118.656C411.239,117.775 411.478,116.757 411.478,115.604C411.478,114.254 411.132,113.08 410.44,112.083C409.749,111.087 408.789,110.387 407.561,109.983C406.334,109.579 404.568,109.377 402.261,109.377L393.885,109.377L393.885,121.831ZM393.885,105.103L401.718,105.103C403.842,105.103 405.367,104.963 406.289,104.683C407.507,104.321 408.426,103.719 409.044,102.879C409.662,102.039 409.97,100.985 409.97,99.717C409.97,98.514 409.682,97.456 409.106,96.542C408.529,95.627 407.706,95.002 406.635,94.664C405.564,94.326 403.727,94.157 401.125,94.157L393.885,94.157L393.885,105.103ZM389.091,126.105L389.091,89.883L402.681,89.883C405.449,89.883 407.668,90.249 409.34,90.982C411.012,91.715 412.322,92.844 413.269,94.367C414.216,95.891 414.69,97.485 414.69,99.148C414.69,100.697 414.27,102.154 413.43,103.521C412.589,104.889 411.321,105.992 409.625,106.832C411.815,107.475 413.5,108.571 414.677,110.118C415.855,111.667 416.444,113.496 416.444,115.604C416.444,117.301 416.086,118.878 415.37,120.336C414.653,121.794 413.767,122.918 412.713,123.708C411.659,124.499 410.337,125.096 408.748,125.5C407.158,125.904 405.209,126.105 402.904,126.105L389.091,126.105ZM346.063,126.105L346.063,99.865L350.066,99.865L350.066,103.595C351.993,100.713 354.777,99.272 358.417,99.272C359.999,99.272 361.452,99.556 362.778,100.124C364.104,100.692 365.096,101.438 365.755,102.36C366.415,103.283 366.875,104.378 367.139,105.646C367.304,106.47 367.386,107.911 367.386,109.97L367.386,126.105L362.939,126.105L362.939,110.143C362.939,108.331 362.766,106.977 362.42,106.079C362.074,105.181 361.46,104.465 360.58,103.929C359.698,103.394 358.665,103.126 357.478,103.126C355.583,103.126 353.949,103.727 352.574,104.93C351.198,106.133 350.51,108.414 350.51,111.774L350.51,126.105L346.063,126.105ZM320.632,112.985C320.632,116.345 321.366,118.862 322.832,120.533C324.297,122.205 326.143,123.041 328.367,123.041C330.574,123.041 332.411,122.201 333.876,120.521C335.342,118.841 336.076,116.28 336.076,112.837C336.076,109.592 335.338,107.133 333.865,105.461C332.39,103.789 330.557,102.953 328.367,102.953C326.143,102.953 324.297,103.785 322.832,105.449C321.366,107.113 320.632,109.624 320.632,112.985ZM316.062,112.985C316.062,108.126 317.412,104.526 320.114,102.187C322.371,100.243 325.122,99.272 328.367,99.272C331.974,99.272 334.922,100.453 337.212,102.817C339.501,105.181 340.647,108.447 340.647,112.614C340.647,115.991 340.14,118.647 339.127,120.583C338.114,122.519 336.64,124.022 334.705,125.092C332.769,126.163 330.656,126.698 328.367,126.698C324.693,126.698 321.724,125.521 319.459,123.165C317.194,120.809 316.062,117.416 316.062,112.985ZM313.115,122.127L313.757,126.056C312.505,126.319 311.385,126.451 310.397,126.451C308.783,126.451 307.531,126.196 306.641,125.685C305.751,125.175 305.125,124.503 304.763,123.672C304.401,122.84 304.22,121.089 304.22,118.421L304.22,103.324L300.958,103.324L300.958,99.865L304.22,99.865L304.22,93.366L308.643,90.698L308.643,99.865L313.115,99.865L313.115,103.324L308.643,103.324L308.643,118.668C308.643,119.936 308.721,120.752 308.877,121.114C309.034,121.477 309.29,121.765 309.643,121.979C309.998,122.193 310.504,122.3 311.164,122.3C311.658,122.3 312.308,122.242 313.115,122.127ZM275.059,126.105L275.059,99.865L279.062,99.865L279.062,103.595C280.989,100.713 283.773,99.272 287.414,99.272C288.995,99.272 290.448,99.556 291.774,100.124C293.1,100.692 294.092,101.438 294.751,102.36C295.411,103.283 295.872,104.378 296.135,105.646C296.3,106.47 296.382,107.911 296.382,109.97L296.382,126.105L291.935,126.105L291.935,110.143C291.935,108.331 291.762,106.977 291.417,106.079C291.07,105.181 290.457,104.465 289.576,103.929C288.694,103.394 287.661,103.126 286.474,103.126C284.58,103.126 282.945,103.727 281.57,104.93C280.194,106.133 279.506,108.414 279.506,111.774L279.506,126.105L275.059,126.105ZM263.465,112.935C261.851,113.595 259.43,114.155 256.202,114.616C254.373,114.879 253.08,115.176 252.322,115.505C251.564,115.835 250.979,116.317 250.568,116.95C250.156,117.585 249.95,118.289 249.95,119.063C249.95,120.249 250.399,121.238 251.296,122.028C252.194,122.819 253.508,123.214 255.238,123.214C256.95,123.214 258.474,122.84 259.808,122.09C261.143,121.341 262.122,120.315 262.75,119.014C263.227,118.009 263.465,116.527 263.465,114.566L263.465,112.935ZM263.836,122.868C262.189,124.269 260.603,125.257 259.079,125.833C257.556,126.41 255.921,126.698 254.175,126.698C251.292,126.698 249.077,125.994 247.529,124.586C245.98,123.177 245.206,121.378 245.206,119.187C245.206,117.902 245.499,116.728 246.083,115.666C246.667,114.603 247.433,113.751 248.381,113.108C249.328,112.466 250.395,111.98 251.581,111.651C252.454,111.42 253.771,111.198 255.535,110.984C259.125,110.555 261.769,110.045 263.465,109.451C263.482,108.842 263.491,108.455 263.491,108.29C263.491,106.478 263.071,105.201 262.23,104.46C261.092,103.456 259.405,102.953 257.165,102.953C255.073,102.953 253.529,103.32 252.532,104.053C251.536,104.786 250.798,106.083 250.321,107.944L245.972,107.351C246.368,105.49 247.018,103.987 247.924,102.842C248.83,101.697 250.139,100.816 251.853,100.198C253.566,99.581 255.55,99.272 257.807,99.272C260.047,99.272 261.868,99.535 263.268,100.063C264.668,100.59 265.698,101.252 266.357,102.051C267.015,102.85 267.477,103.859 267.741,105.078C267.888,105.836 267.962,107.203 267.962,109.179L267.962,115.11C267.962,119.245 268.057,121.86 268.247,122.955C268.436,124.051 268.811,125.101 269.372,126.105L264.726,126.105C264.264,125.183 263.968,124.104 263.836,122.868ZM213.079,126.105L213.079,89.883L217.873,89.883L217.873,107.845L235.86,89.883L242.358,89.883L227.163,104.559L243.026,126.105L236.7,126.105L223.802,107.771L217.873,113.553L217.873,126.105L213.079,126.105Z" style="fill-rule:nonzero;"/>
            </g>
            <g transform="matrix(0.52861,0,0,1.16978,-494.805,-240.158)">
                <text x="3490.93px" y="710.929px" style="font-family:'Helvetica';font-size:200px;">Unterstützt durch die</text>
                <text x="3490.93px" y="1010.93px" style="font-family:'Helvetica';font-size:200px;">Abteilung Kultur Basel-Stadt</text>
            </g>
        </g>
    </g>
</svg>
