<?xml version="1.0" encoding="UTF-8" standalone="no"?>
<!DOCTYPE svg PUBLIC "-//W3C//DTD SVG 1.1//EN" "http://www.w3.org/Graphics/SVG/1.1/DTD/svg11.dtd">
<svg width="100%" height="100%" viewBox="0 0 1536 359" version="1.1" xmlns="http://www.w3.org/2000/svg" xmlns:xlink="http://www.w3.org/1999/xlink" xml:space="preserve" xmlns:serif="http://www.serif.com/" style="fill-rule:evenodd;clip-rule:evenodd;stroke-linejoin:round;stroke-miterlimit:2;">
    <g transform="matrix(1,0,0,1,-30.6499,-41.088)">
        <g transform="matrix(1.26328,0,0,0.5925,0,0)">
            <g transform="matrix(0.791589,0,0,1.68776,-83.9085,425.051)">
                <g transform="matrix(512,0,0,512,108.49,147.645)">
                    <path d="M0.674,-0.7L0.674,-0L0.647,-0L0.082,-0.566L0.082,-0L0.055,-0L0.055,-0.7L0.099,-0.7L0.647,-0.152L0.647,-0.7L0.674,-0.7Z" style="fill:white;fill-rule:nonzero;"/>
                </g>
                <g transform="matrix(512,0,0,512,482.25,147.645)">
                    <path d="M0.419,-0.032L0.541,-0.293L0.351,-0.7L0.47,-0.7L0.6,-0.42L0.73,-0.7L0.76,-0.7L0.615,-0.388L0.78,-0.032C0.871,-0.228 0.931,-0.356 0.958,-0.415C0.985,-0.474 1.029,-0.569 1.09,-0.7L1.121,-0.7L0.795,-0L0.677,-0L0.555,-0.261L0.434,-0L0.316,-0L-0.009,-0.7L0.109,-0.7C0.16,-0.591 0.208,-0.488 0.253,-0.392C0.298,-0.295 0.353,-0.175 0.419,-0.032Z" style="fill:white;fill-rule:nonzero;"/>
                </g>
                <g transform="matrix(512,0,0,512,1050.57,147.645)">
                    <path d="M0.055,-0L0.055,-0.7L0.163,-0.7L0.163,-0.027L0.607,-0.027L0.607,-0L0.055,-0Z" style="fill:white;fill-rule:nonzero;"/>
                </g>
                <g transform="matrix(512,0,0,512,1354.19,147.645)">
                    <path d="M0.108,-0.7L0.328,-0.4L0.547,-0.7L0.577,-0.7L0.343,-0.38L0.621,0.001L0.503,0.001L0.283,-0.299L0.064,0.001L0.034,0.001L0.269,-0.319L-0.01,-0.7L0.108,-0.7Z" style="fill:white;fill-rule:nonzero;"/>
                </g>
            </g>
        </g>
    </g>
</svg>
