<?xml version="1.0" encoding="UTF-8" standalone="no"?><!DOCTYPE svg PUBLIC "-//W3C//DTD SVG 1.1//EN" "http://www.w3.org/Graphics/SVG/1.1/DTD/svg11.dtd"><svg width="100%" height="100%" viewBox="0 0 709 1182" version="1.1" xmlns="http://www.w3.org/2000/svg" xmlns:xlink="http://www.w3.org/1999/xlink" xml:space="preserve" xmlns:serif="http://www.serif.com/" style="fill-rule:evenodd;clip-rule:evenodd;stroke-linejoin:round;stroke-miterlimit:2;"><rect id="Page-1" serif:id="Page 1" x="0" y="0" width="708.662" height="1181.1" style="fill:none;"/><path d="M298.654,271.204c-0,-27.279 19.708,-49.904 45.658,-54.542l-0.662,-81.775c-22.555,22.821 -73.05,84.338 -64.463,170.805c7.354,73.987 58.933,629.871 71.95,764.437l-5.942,-744.246c-26.375,-4.275 -46.541,-27.091 -46.541,-54.679" style="fill:#231f20;fill-rule:nonzero;"/><path d="M364.564,134.866l-0.791,81.775c26.012,4.575 45.804,27.233 45.804,54.562c-0,27.696 -20.329,50.588 -46.871,54.734l-7.229,744.191c10.916,-112.071 65.991,-688.196 73.562,-764.437c8.592,-86.488 -41.933,-148.017 -64.475,-170.825" style="fill:#231f20;fill-rule:nonzero;"/></svg>