<?xml version="1.0" encoding="UTF-8" standalone="no"?><!DOCTYPE svg PUBLIC "-//W3C//DTD SVG 1.1//EN" "http://www.w3.org/Graphics/SVG/1.1/DTD/svg11.dtd"><svg width="100%" height="100%" viewBox="0 0 709 1182" version="1.1" xmlns="http://www.w3.org/2000/svg" xmlns:xlink="http://www.w3.org/1999/xlink" xml:space="preserve" xmlns:serif="http://www.serif.com/" style="fill-rule:evenodd;clip-rule:evenodd;stroke-miterlimit:10;"><rect id="Page-12" serif:id="Page 12" x="0.245" y="0.484" width="708.662" height="1181.1" style="fill:none;"/><rect x="0.245" y="0.484" width="708.658" height="1181.1" style="fill:#231f20;"/><path d="M314.619,722.79l311.612,-0" style="fill:none;fill-rule:nonzero;stroke:#fff;stroke-width:1.19px;"/><path d="M82.922,751.36l543.309,-0" style="fill:none;fill-rule:nonzero;stroke:#fff;stroke-width:1.19px;"/><path d="M82.922,779.93l66.713,-0" style="fill:none;fill-rule:nonzero;stroke:#fff;stroke-width:1.19px;"/><g transform="matrix(4.16667,0,0,4.16667,0.245312,0.484375)"><text x="19.842px" y="90.643px" style="font-family:'AvenirNext-Regular', 'Avenir Next', sans-serif;font-size:5.714px;fill:#fff;">Refernce <tspan x="45.376px 47.061px 49.015px 52.506px 57.551px 60.008px " y="90.643px 90.643px 90.643px 90.643px 90.643px 90.643px ">from v</tspan>arious <tspan x="81.136px " y="90.643px ">n</tspan>atur<tspan x="94.568px " y="90.643px ">a</tspan>l,<tspan x="100.373px 102.83px " y="90.643px 90.643px "> d</tspan>igital <tspan x="121.695px " y="90.643px ">a</tspan>nd <tspan x="134.162px " y="90.643px ">i</tspan>ndus-</text><text x="19.842px" y="97.497px" style="font-family:'AvenirNext-Regular', 'Avenir Next', sans-serif;font-size:5.714px;fill:#fff;">trial <tspan x="32.648px " y="97.497px ">E</tspan>nvir<tspan x="45.521px 49.013px " y="97.497px 97.497px ">on</tspan>ments <tspan x="71.332px " y="97.497px ">s</tspan>ensually <tspan x="98.05px " y="97.497px ">m</tspan>er<tspan x="108.319px 111.93px " y="97.497px 97.497px ">ge</tspan>/ <tspan x="120.329px " y="97.497px ">f</tspan>use <tspan x="134.157px 136.272px 139.289px " y="97.497px 97.497px 97.497px ">/ t</tspan>ak<tspan x="146.963px " y="97.497px ">e</tspan></text><text x="37.396px" y="104.351px" style="font-family:'AvenirNext-Regular', 'Avenir Next', sans-serif;font-size:5.714px;fill:#fff;">shape in r<tspan x="62.772px 66.04px " y="104.351px 104.351px ">el</tspan>ation to the human body<tspan x="131.374px " y="104.351px ">.</tspan></text><text x="19.842px" y="118.065px" style="font-family:'AvenirNext-Regular', 'Avenir Next', sans-serif;font-size:5.714px;fill:#fff;">F<tspan x="22.951px 24.379px " y="118.065px 118.065px ">in</tspan>d the spout as one/the ﬁrst</text><text x="98.276px" y="118.065px" style="font-family:'AvenirNext-Regular', 'Avenir Next', sans-serif;font-size:5.714px;fill:#fff;">of<tspan x="103.59px 105.018px " y="118.065px 118.065px "> a</tspan> “line” of<tspan x="130.118px 131.546px " y="118.065px 118.065px "> o</tspan>bjects</text><text x="19.842px" y="124.919px" style="font-family:'AvenirNext-Regular', 'Avenir Next', sans-serif;font-size:5.714px;fill:#fff;">that <tspan x="32.092px " y="124.919px ">c</tspan>learly <tspan x="51.261px " y="124.919px ">i</tspan>nterpr<tspan x="68.729px 71.997px " y="124.919px 124.919px ">et</tspan>s <tspan x="78.647px " y="124.919px ">t</tspan>he <tspan x="89.359px " y="124.919px ">b</tspan>ody <tspan x="105.22px " y="124.919px ">a</tspan>s <tspan x="113.109px 116.161px 118.462px " y="124.919px 124.919px 124.919px ">a s</tspan>ensual <tspan x="140.236px " y="124.919px ">a</tspan>nd</text><text x="19.842px" y="131.773px" style="font-family:'AvenirNext-Regular', 'Avenir Next', sans-serif;font-size:5.714px;fill:#fff;">integral <tspan x="41.367px " y="131.773px ">p</tspan>art <tspan x="53.452px 56.943px 58.766px " y="131.773px 131.773px 131.773px ">of </tspan>the <tspan x="70.388px " y="131.773px ">e</tspan>nvir<tspan x="83.148px 86.639px " y="131.773px 131.773px ">on</tspan>ment.<tspan x="104.718px 106.186px 109.34px 112.672px 115.94px 117.546px " y="131.773px 131.773px 131.773px 131.773px 131.773px 131.773px "> The p</tspan>oint <tspan x="132.831px " y="131.773px ">h</tspan>er<tspan x="141.384px 144.653px 146.258px " y="131.773px 131.773px 131.773px ">e i</tspan>s</text><text x="19.842px" y="138.627px" style="font-family:'AvenirNext-Regular', 'Avenir Next', sans-serif;font-size:5.714px;fill:#fff;">to <tspan x="26.804px " y="138.627px ">d</tspan>isr<tspan x="36.363px 39.631px " y="138.627px 138.627px ">eg</tspan>ar<tspan x="48.248px 51.888px 53.546px " y="138.627px 138.627px 138.627px ">d h</tspan>uman <tspan x="73.273px " y="138.627px ">c</tspan>ategoriza<tspan x="100.311px " y="138.627px ">t</tspan>ion <tspan x="112.02px " y="138.627px ">(</tspan>gender <tspan x="134.557px " y="138.627px ">c</tspan>lassi</text><text x="148.408px" y="138.627px" style="font-family:'AvenirNext-Regular', 'Avenir Next', sans-serif;font-size:5.714px;fill:#fff;">-</text><text x="19.842px" y="145.481px" style="font-family:'AvenirNext-Regular', 'Avenir Next', sans-serif;font-size:5.714px;fill:#fff;">ﬁcation,<tspan x="40.166px 42.415px " y="145.481px 145.481px "> s</tspan>izing,<tspan x="58.579px 60.829px " y="145.481px 145.481px "> e</tspan>tc.) <tspan x="74.214px " y="145.481px ">a</tspan>nd <tspan x="86.474px " y="145.481px ">t</tspan>hen <tspan x="100.454px " y="145.481px ">t</tspan>o <tspan x="108.006px " y="145.481px ">r</tspan>adically <tspan x="131.938px " y="145.481px ">e</tspan>quate</text><text x="19.842px" y="152.335px" style="font-family:'AvenirNext-Regular', 'Avenir Next', sans-serif;font-size:5.714px;fill:#fff;">the human body with</text><text x="75.913px" y="152.335px" style="font-family:'AvenirNext-Regular', 'Avenir Next', sans-serif;font-size:5.714px;fill:#fff;">the envir<tspan x="98.512px 102.003px " y="152.335px 152.335px ">on</tspan>ment.<tspan x="120.082px " y="152.335px "> </tspan>Th<tspan x="127.859px " y="152.335px ">e</tspan> human</text><text x="19.842px" y="159.189px" style="font-family:'AvenirNext-Regular', 'Avenir Next', sans-serif;font-size:5.714px;fill:#fff;">body <tspan x="35.049px " y="159.189px ">i</tspan>s <tspan x="40.661px " y="159.189px ">n</tspan>ot <tspan x="50.93px " y="159.189px ">o</tspan>nly <tspan x="63.616px " y="159.189px ">e</tspan>qual <tspan x="79.971px " y="159.189px ">b</tspan>ut <tspan x="90.389px 92.36px 95.852px " y="159.189px 159.189px 159.189px ">“on</tspan>e” <tspan x="106.298px " y="159.189px ">w</tspan>ith <tspan x="118.778px " y="159.189px ">t</tspan>he <tspan x="128.836px " y="159.189px ">e</tspan>nvir<tspan x="141.597px 145.088px " y="159.189px 159.189px ">on</tspan></text><text x="148.409px" y="159.189px" style="font-family:'AvenirNext-Regular', 'Avenir Next', sans-serif;font-size:5.714px;fill:#fff;">-</text><text x="19.842px" y="166.043px" style="font-family:'AvenirNext-Regular', 'Avenir Next', sans-serif;font-size:5.714px;fill:#fff;">ment <tspan x="35.167px 36.996px 38.876px " y="166.043px 166.043px 166.043px ">- e</tspan>qual <tspan x="55.463px " y="166.043px ">t</tspan>o <tspan x="62.646px " y="166.043px ">t</tspan>he <tspan x="72.936px " y="166.043px ">s</tspan>oil,<tspan x="83.147px 85.027px " y="166.043px 166.043px "> e</tspan>ar<tspan x="93.301px " y="166.043px ">t</tspan>h,<tspan x="99.758px 101.638px 103.449px 105.403px 108.671px 111.94px 113.82px " y="166.043px 166.043px 166.043px 166.043px 166.043px 166.043px 166.043px "> tree a</tspan>nd <tspan x="125.71px " y="166.043px ">f</tspan>ruit,<tspan x="137.327px 139.207px " y="166.043px 166.043px "> o</tspan>nly</text><text x="19.842px" y="172.897px" style="font-family:'AvenirNext-Regular', 'Avenir Next', sans-serif;font-size:5.714px;fill:#fff;">one <tspan x="31.515px " y="172.897px ">l</tspan>ink <tspan x="42.211px " y="172.897px ">i</tspan>n <tspan x="48.553px " y="172.897px ">t</tspan>he <tspan x="58.557px " y="172.897px ">c</tspan>hain.<tspan x="73.858px 75.452px " y="172.897px 172.897px "> H</tspan>ighlighting <tspan x="109.498px " y="172.897px ">t</tspan>he <tspan x="119.503px " y="172.897px ">i</tspan>nter<tspan x="131.284px 134.923px " y="172.897px 172.897px ">de</tspan>pen-</text><text x="19.842px" y="179.751px" style="font-family:'AvenirNext-Regular', 'Avenir Next', sans-serif;font-size:5.714px;fill:#fff;">dence <tspan x="38.118px " y="179.751px ">a</tspan>nd <tspan x="50.049px " y="179.751px ">i</tspan>nterpenetration <tspan x="94.189px 97.681px 99.504px 101.424px " y="179.751px 179.751px 179.751px 179.751px ">of b</tspan>ody <tspan x="116.905px " y="179.751px ">a</tspan>nd <tspan x="128.837px " y="179.751px ">e</tspan>nvir<tspan x="141.597px 145.089px " y="179.751px 179.751px ">on</tspan>-</text><text x="19.842px" y="186.605px" style="font-family:'AvenirNext-Regular', 'Avenir Next', sans-serif;font-size:5.714px;fill:#fff;">ment.<tspan x="34.6px " y="186.605px "> </tspan>Th<tspan x="42.375px " y="186.605px ">e</tspan> barriers ar<tspan x="73.597px 76.865px " y="186.605px 186.605px ">e </tspan>ﬂuid.<tspan x="91.102px 92.53px 95.433px 98.701px " y="186.605px 186.605px 186.605px 186.605px "> Peo</tspan>ple mark their self-</text><text x="19.843px" y="193.459px" style="font-family:'AvenirNext-Regular', 'Avenir Next', sans-serif;font-size:5.714px;fill:#fff;">image <tspan x="38.327px " y="193.459px ">w</tspan>ith <tspan x="51.241px " y="193.459px ">l</tspan>uxury <tspan x="69.011px " y="193.459px ">t</tspan>ools,<tspan x="83.096px 85.176px " y="193.459px 193.459px "> t</tspan>hey <tspan x="98.456px " y="193.459px ">d</tspan>ecorate <tspan x="123.854px " y="193.459px ">a</tspan>nd <tspan x="135.945px " y="193.459px ">s</tspan>tage</text><text x="19.843px" y="200.313px" style="font-family:'AvenirNext-Regular', 'Avenir Next', sans-serif;font-size:5.714px;fill:#fff;">themselves <tspan x="51.087px " y="200.313px ">a</tspan>nd <tspan x="63.046px " y="200.313px ">t</tspan>heir <tspan x="76.891px " y="200.313px ">s</tspan>urr<tspan x="86.759px 90.25px " y="200.313px 200.313px ">ou</tspan>ndings <tspan x="113.375px " y="200.313px ">w</tspan>ith <tspan x="126.157px " y="200.313px ">t</tspan>hem.<tspan x="140.928px 142.876px " y="200.313px 200.313px "> H</tspan>e</text><text x="19.843px" y="207.167px" style="font-family:'AvenirNext-Regular', 'Avenir Next', sans-serif;font-size:5.714px;fill:#fff;">dives <tspan x="36.059px " y="207.167px ">i</tspan>n,	<tspan x="47.23px " y="207.167px ">d</tspan>evelops <tspan x="73.846px " y="207.167px ">a</tspan>nd <tspan x="86.411px 88.365px 91.633px " y="207.167px 207.167px 207.167px ">red</tspan>iscovers <tspan x="118.792px " y="207.167px ">h</tspan>imself<tspan x="137.665px 140.22px " y="207.167px 207.167px "> a</tspan>nd</text><text x="19.843px" y="214.021px" style="font-family:'AvenirNext-Regular', 'Avenir Next', sans-serif;font-size:5.714px;fill:#fff;">forms <tspan x="37.35px 40.842px 42.664px 45.356px " y="214.021px 214.021px 214.021px 214.021px ">of e</tspan>xpr<tspan x="56.938px 60.206px " y="214.021px 214.021px ">es</tspan>sion <tspan x="76.211px " y="214.021px ">i</tspan>n <tspan x="83.651px " y="214.021px ">t</tspan>his <tspan x="95.451px 97.405px 100.896px " y="214.021px 214.021px 214.021px ">rol</tspan>e <tspan x="108.296px 110.25px 113.518px " y="214.021px 214.021px 214.021px ">rel</tspan>ationship<tspan x="138.86px 140.174px 142.866px " y="214.021px 214.021px 214.021px ">. H</tspan>e</text><text x="19.843px" y="220.875px" style="font-family:'AvenirNext-Regular', 'Avenir Next', sans-serif;font-size:5.714px;fill:#fff;">continues <tspan x="47.104px " y="220.875px ">t</tspan>o <tspan x="54.315px 56.126px 58.081px " y="220.875px 220.875px 220.875px ">tre</tspan>at <tspan x="68.029px " y="220.875px ">t</tspan>he <tspan x="78.348px " y="220.875px ">e</tspan>nvir<tspan x="91.108px 94.599px " y="220.875px 220.875px ">on</tspan>ment <tspan x="113.272px " y="220.875px ">w</tspan>ith <tspan x="126.014px " y="220.875px ">t</tspan>he <tspan x="136.334px " y="220.875px ">s</tspan>ame</text><text x="19.843px" y="227.729px" style="font-family:'AvenirNext-Regular', 'Avenir Next', sans-serif;font-size:5.714px;fill:#fff;">importance and <tspan x="62.783px 65.777px 67.52px " y="227.729px 227.729px 227.729px ">att</tspan>ention <tspan x="87.491px " y="227.729px ">a</tspan>s the <tspan x="104.53px " y="227.729px ">p</tspan>ersonal self. Th<tspan x="146.956px " y="227.729px ">e</tspan></text><text x="19.843px" y="234.583px" style="font-family:'AvenirNext-Regular', 'Avenir Next', sans-serif;font-size:5.714px;fill:#fff;">„futur<tspan x="34.145px 37.413px " y="234.583px 234.583px ">e </tspan>tribal“ shows of</text><text x="79.668px" y="234.583px" style="font-family:'AvenirNext-Regular', 'Avenir Next', sans-serif;font-size:5.714px;fill:#fff;">the power of	<tspan x="115.243px " y="234.583px ">t</tspan>ransgr<tspan x="133.516px 136.784px " y="234.583px 234.583px ">es</tspan>sing</text><text x="19.843px" y="241.437px" style="font-family:'AvenirNext-Regular', 'Avenir Next', sans-serif;font-size:5.714px;fill:#fff;">barriers <tspan x="41.961px " y="241.437px ">a</tspan>nd <tspan x="53.995px " y="241.437px ">e</tspan>xpr<tspan x="65.577px 68.846px " y="241.437px 241.437px ">es</tspan>sing <tspan x="84.302px " y="241.437px ">s</tspan>oftness <tspan x="107.443px " y="241.437px ">a</tspan>nd <tspan x="119.477px " y="241.437px ">a</tspan>cts <tspan x="131.756px 135.248px 137.07px 139.093px " y="241.437px 241.437px 241.437px 241.437px ">of c</tspan>ar<tspan x="146.955px " y="241.437px ">e</tspan></text><text x="64.606px" y="248.291px" style="font-family:'AvenirNext-Regular', 'Avenir Next', sans-serif;font-size:5.714px;fill:#fff;">and cultivation .</text></g><g transform="matrix(0,1,-1,0,0.729687,0.239063)"><text x="326.451px" y="-655.206px" style="font-family:'CalignaDEMORegular', 'Caligna DEMO';font-size:33.333px;fill:#fff;">6<tspan x="346.151px 363.751px " y="-655.206px -655.206px ">/6</tspan></text></g></svg>