<?xml version="1.0" encoding="UTF-8" standalone="no"?><!DOCTYPE svg PUBLIC "-//W3C//DTD SVG 1.1//EN" "http://www.w3.org/Graphics/SVG/1.1/DTD/svg11.dtd"><svg width="100%" height="100%" viewBox="0 0 710 1182" version="1.1" xmlns="http://www.w3.org/2000/svg" xmlns:xlink="http://www.w3.org/1999/xlink" xml:space="preserve" xmlns:serif="http://www.serif.com/" style="fill-rule:evenodd;clip-rule:evenodd;stroke-linejoin:round;stroke-miterlimit:2;"><rect id="Page-13" serif:id="Page 13" x="0.491" y="0.484" width="708.662" height="1181.1" style="fill:none;"/><rect x="0.491" y="0.484" width="708.658" height="1181.1" style="fill:#231f20;"/><text x="189.457px" y="1031.59px" style="font-family:'AvenirNext-Regular', 'Avenir Next', sans-serif;font-size:29.652px;fill:#fff;">w<tspan x="211.874px 234.291px 255.64px 263.646px 281.17px 303.587px 311.355px 326.003px 334.009px 349.132px 366.715px 374.746px 386.013px 394.044px 418.062px 435.586px 458.003px 465.771px 480.419px 488.425px 503.548px " y="1031.59px 1031.59px 1031.59px 1031.59px 1031.59px 1031.59px 1031.59px 1031.59px 1031.59px 1031.59px 1031.59px 1031.59px 1031.59px 1031.59px 1031.59px 1031.59px 1031.59px 1031.59px 1031.59px 1031.59px 1031.59px ">ww.nwlx.ch / @nwlx.ch</tspan></text><text x="174.78px" y="592.092px" style="font-family:'AvenirNext-UltraLight', 'Avenir Next', sans-serif;font-weight:275;font-size:29.652px;fill:#fff;">T<tspan x="190.554px 207.723px 223.201px 240.458px 253.95px 261.98px 274.968px 293.204px 310.461px 318.491px 327.15px 345.386px 355.082px 363.112px 381.971px 391.133px 409.369px 428.227px 447.086px 454.084px 471.341px 490.199px 498.23px 517.088px 529.008px " y="592.092px 592.092px 592.092px 592.092px 592.092px 592.092px 592.092px 592.092px 592.092px 592.092px 592.092px 592.092px 592.092px 592.092px 592.092px 592.092px 592.092px 592.092px 592.092px 592.092px 592.092px 592.092px 592.092px 592.092px 592.092px ">hank you for dropping by.</tspan></text></svg>