<?xml version="1.0" encoding="UTF-8" standalone="no"?><!DOCTYPE svg PUBLIC "-//W3C//DTD SVG 1.1//EN" "http://www.w3.org/Graphics/SVG/1.1/DTD/svg11.dtd"><svg width="100%" height="100%" viewBox="0 0 709 1182" version="1.1" xmlns="http://www.w3.org/2000/svg" xmlns:xlink="http://www.w3.org/1999/xlink" xml:space="preserve" xmlns:serif="http://www.serif.com/" style="fill-rule:evenodd;clip-rule:evenodd;stroke-linejoin:round;stroke-miterlimit:2;"><rect id="Page-2" serif:id="Page 2" x="0.245" y="0" width="708.662" height="1181.1" style="fill:none;"/><rect x="0.245" y="0" width="708.658" height="1181.1" style="fill:#fff;"/><g transform="matrix(4.16667,0,0,4.16667,0.245312,0)"><text x="21.105px" y="36.293px" style="font-family:'CalignaDEMORegular', 'Caligna DEMO';font-size:21.933px;fill:#231f20;">I<tspan x="26.983px 44.091px 61.813px 79.908px 95.524px 111.184px 126.581px 132.459px " y="36.293px 36.293px 36.293px 36.293px 36.293px 36.293px 36.293px 36.293px ">NDUSTRIA</tspan></text><text x="25.865px" y="62.616px" style="font-family:'CalignaDEMORegular', 'Caligna DEMO';font-size:21.933px;fill:#231f20;">B<tspan x="43.477px 59.115px 72.275px 89.887px 106.995px 112.873px 127.7px " y="62.616px 62.616px 62.616px 62.616px 62.616px 62.616px 62.616px ">OTANICA</tspan></text></g><g transform="matrix(0,1,-1,0,0.245312,-0.245312)"><text x="331.134px" y="-655.69px" style="font-family:'CalignaDEMORegular', 'Caligna DEMO';font-size:33.333px;fill:#231f20;">1<tspan x="341.467px 359.067px " y="-655.69px -655.69px ">/6</tspan></text></g><g transform="matrix(4.16667,0,0,4.16667,0.245312,0)"><text x="19.842px" y="176.892px" style="font-family:'AvenirNext-Regular', 'Avenir Next', sans-serif;font-size:5.714px;fill:#231f20;">T<tspan x="22.551px 26.043px " y="176.892px 176.892px ">oo</tspan>ls and <tspan x="46.277px 50.277px " y="176.892px 176.892px ">Ac</tspan>ts of<tspan x="64.225px 65.654px " y="176.892px 176.892px "> C</tspan>ultivation	<tspan x="133.522px " y="176.892px ">/</tspan> 2021</text><text x="19.842px" y="183.746px" style="font-family:'AvenirNext-Regular', 'Avenir Next', sans-serif;font-size:5.714px;fill:#231f20;">“Industria <tspan x="49.93px " y="183.746px ">B</tspan>otanica<tspan x="72.438px 74.649px 79.874px " y="183.746px 183.746px 183.746px ">” d</tspan>eals <tspan x="99.002px " y="183.746px ">w</tspan>ith <tspan x="115.061px " y="183.746px ">t</tspan>he <tspan x="128.698px 130.652px 133.92px " y="183.746px 183.746px 183.746px ">rel</tspan>ation</text><text x="148.406px" y="183.746px" style="font-family:'AvenirNext-Regular', 'Avenir Next', sans-serif;font-size:5.714px;fill:#231f20;">-</text><text x="19.842px" y="190.601px" style="font-family:'AvenirNext-Regular', 'Avenir Next', sans-serif;font-size:5.714px;fill:#231f20;">ship <tspan x="33.831px " y="190.601px ">b</tspan>etween <tspan x="59.734px " y="190.601px ">p</tspan>eople <tspan x="81.523px " y="190.601px ">a</tspan>nd <tspan x="94.597px " y="190.601px ">t</tspan>heir <tspan x="109.557px " y="190.601px ">e</tspan>nvir<tspan x="122.317px 125.808px " y="190.601px 190.601px ">on</tspan>ment.<tspan x="143.889px 146.951px " y="190.601px 190.601px "> I</tspan>t</text><text x="19.842px" y="197.455px" style="font-family:'AvenirNext-Regular', 'Avenir Next', sans-serif;font-size:5.714px;fill:#231f20;">is <tspan x="26.431px " y="197.455px ">s</tspan>tr<tspan x="32.734px 36.225px " y="197.455px 197.455px ">on</tspan>gly <tspan x="50.008px " y="197.455px ">a</tspan>bout <tspan x="67.945px " y="197.455px ">d</tspan>uality<tspan x="85.219px 86.534px 89.157px " y="197.455px 197.455px 197.455px ">, a</tspan>s <tspan x="97.368px " y="197.455px ">w</tspan>ell <tspan x="110.402px " y="197.455px ">a</tspan>s <tspan x="118.614px 121.665px 124.288px " y="197.455px 197.455px 197.455px ">a f</tspan>eeling <tspan x="144.933px " y="197.455px ">o</tspan>f</text><text x="19.842px" y="204.309px" style="font-family:'AvenirNext-Regular', 'Avenir Next', sans-serif;font-size:5.714px;fill:#231f20;">being <tspan x="38.157px " y="204.309px ">t</tspan>orn <tspan x="51.882px " y="204.309px ">b</tspan>etween <tspan x="77.768px " y="204.309px ">t</tspan>wo <tspan x="90.379px " y="204.309px ">p</tspan>oles; <tspan x="109.505px 112.996px 114.819px 117.864px " y="204.309px 204.309px 204.309px 204.309px ">of t</tspan>he <tspan x="129.321px " y="204.309px ">i</tspan>ndustry</text><text x="19.842px" y="211.164px" style="font-family:'AvenirNext-Regular', 'Avenir Next', sans-serif;font-size:5.714px;fill:#231f20;">with <tspan x="33.448px " y="211.164px ">t</tspan>he <tspan x="44.631px " y="211.164px ">s</tspan>teadily <tspan x="67.334px " y="211.164px ">i</tspan>ncr<tspan x="76.894px " y="211.164px ">e</tspan>asing <tspan x="96.848px " y="211.164px ">t</tspan>echnology <tspan x="129.031px " y="211.164px ">a</tspan>nd <tspan x="141.814px " y="211.164px ">t</tspan>he</text><text x="19.842px" y="218.018px" style="font-family:'AvenirNext-Regular', 'Avenir Next', sans-serif;font-size:5.714px;fill:#231f20;">wild,<tspan x="31.928px 33.997px " y="218.018px 218.018px "> u</tspan>ntouched <tspan x="64.425px " y="218.018px ">n</tspan>atur<tspan x="77.826px 81.094px 82.408px 84.477px " y="218.018px 218.018px 218.018px 218.018px ">e. H</tspan>ow <tspan x="98.403px " y="218.018px ">d</tspan>o <tspan x="107.603px " y="218.018px ">w</tspan>e <tspan x="117.203px 119.157px 122.426px " y="218.018px 218.018px 218.018px ">rel</tspan>ate <tspan x="134.008px " y="218.018px ">t</tspan>o <tspan x="141.38px " y="218.018px ">o</tspan>ur</text><text x="19.842px" y="224.872px" style="font-family:'AvenirNext-Regular', 'Avenir Next', sans-serif;font-size:5.714px;fill:#231f20;">envir<tspan x="32.602px 36.093px " y="224.872px 224.872px ">on</tspan>ment <tspan x="55.2px 57.029px 59.371px " y="224.872px 224.872px 224.872px ">- l</tspan>iving <tspan x="75.729px " y="224.872px ">a</tspan>nd <tspan x="88.082px " y="224.872px ">n</tspan>on-living,<tspan x="115.372px 117.714px " y="224.872px 224.872px "> a</tspan>rtiﬁcial <tspan x="140.22px " y="224.872px ">a</tspan>nd</text><text x="19.842px" y="231.726px" style="font-family:'AvenirNext-Regular', 'Avenir Next', sans-serif;font-size:5.714px;fill:#231f20;">natur<tspan x="33.277px " y="231.726px ">a</tspan>l <tspan x="39.705px 41.534px 43.471px " y="231.726px 231.726px 231.726px ">- a</tspan>nd <tspan x="55.42px " y="231.726px ">a</tspan>sk <tspan x="65.86px " y="231.726px ">o</tspan>urselves <tspan x="92.506px " y="231.726px ">t</tspan>he <tspan x="102.854px " y="231.726px ">q</tspan>uestion: <tspan x="129.311px " y="231.726px ">H</tspan>ow <tspan x="143.106px " y="231.726px ">d</tspan>o</text><text x="19.842px" y="238.581px" style="font-family:'AvenirNext-Regular', 'Avenir Next', sans-serif;font-size:5.714px;fill:#231f20;">we identify / classify</text><text x="72.283px" y="238.581px" style="font-family:'AvenirNext-Regular', 'Avenir Next', sans-serif;font-size:5.714px;fill:#231f20;">ourselves? How do we</text><text x="131.363px" y="238.581px" style="font-family:'AvenirNext-Regular', 'Avenir Next', sans-serif;font-size:5.714px;fill:#231f20;">embed</text><text x="19.842px" y="245.435px" style="font-family:'AvenirNext-Regular', 'Avenir Next', sans-serif;font-size:5.714px;fill:#231f20;">ourselves?</text></g></svg>