<?xml version="1.0" encoding="UTF-8" standalone="no"?><!DOCTYPE svg PUBLIC "-//W3C//DTD SVG 1.1//EN" "http://www.w3.org/Graphics/SVG/1.1/DTD/svg11.dtd"><svg width="100%" height="100%" viewBox="0 0 710 1182" version="1.1" xmlns="http://www.w3.org/2000/svg" xmlns:xlink="http://www.w3.org/1999/xlink" xml:space="preserve" xmlns:serif="http://www.serif.com/" style="fill-rule:evenodd;clip-rule:evenodd;stroke-linejoin:round;stroke-miterlimit:2;"><rect id="Page-3" serif:id="Page 3" x="0.491" y="0" width="708.662" height="1181.1" style="fill:none;"/><g transform="matrix(4.16667,0,0,4.16667,0.490625,0)"><text x="19.842px" y="55.468px" style="font-family:'AvenirNext-Regular', 'Avenir Next', sans-serif;font-size:5.714px;fill:#231f20;">W<tspan x="25.191px 28.459px 31.198px 34.249px 36.204px 39.472px 42.211px " y="55.468px 55.468px 55.468px 55.468px 55.468px 55.468px 55.468px ">e are s</tspan>urr<tspan x="52.079px 55.57px " y="55.468px 55.468px ">ou</tspan>nded <tspan x="75.496px " y="55.468px ">b</tspan>y <tspan x="84.663px " y="55.468px ">h</tspan>ighly <tspan x="103.333px 106.601px 108.184px 111.292px " y="55.468px 55.468px 55.468px 55.468px ">efﬁc</tspan>ient,<tspan x="125.291px 128.03px " y="55.468px 55.468px "> c</tspan>omfort-</text><text x="19.842px" y="62.322px" style="font-family:'AvenirNext-Regular', 'Avenir Next', sans-serif;font-size:5.714px;fill:#231f20;">able <tspan x="33.573px " y="62.322px ">a</tspan>nd <tspan x="45.916px " y="62.322px ">w</tspan>ater<tspan x="60.241px " y="62.322px ">t</tspan>ight <tspan x="74.566px 76.52px 79.789px " y="62.322px 62.322px 62.322px ">res</tspan>idential <tspan x="104.045px " y="62.322px ">c</tspan>omplexes,<tspan x="133.592px 135.924px 139.415px 140.998px 144.106px " y="62.322px 62.322px 62.322px 62.322px 62.322px "> ofﬁc</tspan>e</text><text x="19.842px" y="69.177px" style="font-family:'AvenirNext-Regular', 'Avenir Next', sans-serif;font-size:5.714px;fill:#231f20;">buildings,<tspan x="45.519px 46.947px " y="69.177px 69.177px "> l</tspan>ar<tspan x="53.391px 57.002px " y="69.177px 69.177px ">ge</tspan>-scale concr<tspan x="91.157px 94.426px " y="69.177px 69.177px ">et</tspan>e</text><text x="100.38px" y="69.177px" style="font-family:'AvenirNext-Regular', 'Avenir Next', sans-serif;font-size:5.714px;fill:#231f20;">ﬂoor plans and</text><text x="140.22px" y="69.177px" style="font-family:'AvenirNext-Regular', 'Avenir Next', sans-serif;font-size:5.714px;fill:#231f20;">sky-</text><text x="19.842px" y="76.031px" style="font-family:'AvenirNext-Regular', 'Avenir Next', sans-serif;font-size:5.714px;fill:#231f20;">high partition walls.<tspan x="70.408px 71.768px 77.117px 80.385px " y="76.031px 76.031px 76.031px 76.031px "> We </tspan>now often</text><text x="108.686px" y="76.031px" style="font-family:'AvenirNext-Regular', 'Avenir Next', sans-serif;font-size:5.714px;fill:#231f20;">live comfortably</text><text x="19.842px" y="82.885px" style="font-family:'AvenirNext-Regular', 'Avenir Next', sans-serif;font-size:5.714px;fill:#231f20;">isolated from <tspan x="55.789px " y="82.885px ">n</tspan>atur<tspan x="69.187px 72.455px 73.769px 75.35px " y="82.885px 82.885px 82.885px 82.885px ">e. N</tspan>atur<tspan x="89.828px " y="82.885px ">a</tspan>l <tspan x="95.9px " y="82.885px ">i</tspan>nstincts <tspan x="118.529px " y="82.885px ">a</tspan>nd <tspan x="130.121px 132.075px 135.343px " y="82.885px 82.885px 82.885px ">reﬂ</tspan>exes</text><text x="19.842px" y="89.74px" style="font-family:'AvenirNext-Regular', 'Avenir Next', sans-serif;font-size:5.714px;fill:#231f20;">become <tspan x="42.966px " y="89.74px ">s</tspan>uperﬂuous <tspan x="75.105px " y="89.74px ">a</tspan>nd <tspan x="86.669px 88.623px 91.891px " y="89.74px 89.74px 89.74px ">rem</tspan>ain <tspan x="106.29px " y="89.74px ">u</tspan>nder<tspan x="121.79px 125.43px " y="89.74px 89.74px ">de</tspan>veloped</text><text x="19.842px" y="96.594px" style="font-family:'AvenirNext-Regular', 'Avenir Next', sans-serif;font-size:5.714px;fill:#231f20;">and <tspan x="31.583px " y="96.594px ">d</tspan>ull <tspan x="43.152px " y="96.594px ">i</tspan>n <tspan x="49.63px " y="96.594px ">t</tspan>he <tspan x="59.77px " y="96.594px ">u</tspan>rban <tspan x="76.887px " y="96.594px ">s</tspan>etting.<tspan x="95.92px 97.512px 100.666px 103.998px 107.266px 108.996px " y="96.594px 96.594px 96.594px 96.594px 96.594px 96.594px "> The u</tspan>ntouched <tspan x="139.083px " y="96.594px ">“</tspan>pri</text><text x="148.408px" y="96.594px" style="font-family:'AvenirNext-Regular', 'Avenir Next', sans-serif;font-size:5.714px;fill:#231f20;">-</text><text x="19.842px" y="103.448px" style="font-family:'AvenirNext-Regular', 'Avenir Next', sans-serif;font-size:5.714px;fill:#231f20;">mitive” natur<tspan x="52.654px 55.923px " y="103.448px 103.448px ">e </tspan>is mor<tspan x="73.237px 76.505px " y="103.448px 103.448px ">e </tspan>of<tspan x="83.248px 84.677px " y="103.448px 103.448px "> a</tspan>n exception for us today</text><text x="19.842px" y="110.302px" style="font-family:'AvenirNext-Regular', 'Avenir Next', sans-serif;font-size:5.714px;fill:#231f20;">and is becoming a distant,</text><text x="88.991px" y="110.302px" style="font-family:'AvenirNext-Regular', 'Avenir Next', sans-serif;font-size:5.714px;fill:#231f20;">almost surr<tspan x="117.666px " y="110.302px ">e</tspan>al idyll.<tspan x="138.871px " y="110.302px "> </tspan>Th<tspan x="146.649px " y="110.302px ">i</tspan>s</text><text x="19.842px" y="117.157px" style="font-family:'AvenirNext-Regular', 'Avenir Next', sans-serif;font-size:5.714px;fill:#231f20;">envir<tspan x="32.603px 36.094px " y="117.157px 117.157px ">on</tspan>ment <tspan x="55.134px " y="117.157px ">i</tspan>s <tspan x="61.374px " y="117.157px ">d</tspan>ominated <tspan x="92.288px " y="117.157px ">b</tspan>y <tspan x="100.991px " y="117.157px ">c</tspan>apitalism <tspan x="129.546px " y="117.157px ">a</tspan>nd <tspan x="141.831px " y="117.157px ">t</tspan>he</text><text x="19.842px" y="124.011px" style="font-family:'AvenirNext-Regular', 'Avenir Next', sans-serif;font-size:5.714px;fill:#231f20;">philosophy <tspan x="52.334px 55.825px 57.648px 61.043px " y="124.011px 124.011px 124.011px 124.011px ">of e</tspan>xcessive <tspan x="89.088px " y="124.011px ">c</tspan>onsumption.<tspan x="124.654px 127.911px 131.066px 134.397px 137.666px 139.62px 142.889px 146.283px " y="124.011px 124.011px 124.011px 124.011px 124.011px 124.011px 124.011px 124.011px "> There i</tspan>s</text><text x="19.842px" y="130.865px" style="font-family:'AvenirNext-Regular', 'Avenir Next', sans-serif;font-size:5.714px;fill:#231f20;">not only a feeling of<tspan x="71.608px 73.037px " y="130.865px 130.865px "> a</tspan>lienation towar<tspan x="114.591px 118.231px " y="130.865px 130.865px ">ds</tspan> natur<tspan x="135.597px 138.866px 140.18px 141.609px " y="130.865px 130.865px 130.865px 130.865px ">e, b</tspan>ut</text><text x="19.842px" y="137.72px" style="font-family:'AvenirNext-Regular', 'Avenir Next', sans-serif;font-size:5.714px;fill:#231f20;">also <tspan x="32.625px " y="137.72px ">a</tspan>n <tspan x="41.26px " y="137.72px ">i</tspan>nterpersonal <tspan x="78.203px " y="137.72px ">i</tspan>solation,<tspan x="101.46px 103.723px " y="137.72px 137.72px "> w</tspan>hich <tspan x="121.198px " y="137.72px ">s</tspan>hapes <tspan x="141.815px " y="137.72px ">t</tspan>he</text><text x="19.842px" y="144.574px" style="font-family:'AvenirNext-Regular', 'Avenir Next', sans-serif;font-size:5.714px;fill:#231f20;">lifestyle <tspan x="41.185px " y="144.574px ">i</tspan>n <tspan x="47.608px " y="144.574px ">u</tspan>rban <tspan x="64.671px " y="144.574px ">m</tspan>etr<tspan x="76.751px 80.243px " y="144.574px 144.574px ">op</tspan>olises.<tspan x="99.888px 101.426px 104.58px 107.911px 111.18px 112.854px " y="144.574px 144.574px 144.574px 144.574px 144.574px 144.574px "> The o</tspan>mnipr<tspan x="131.723px 134.991px " y="144.574px 144.574px ">es</tspan>ence</text><text x="19.842px" y="151.428px" style="font-family:'AvenirNext-Regular', 'Avenir Next', sans-serif;font-size:5.714px;fill:#231f20;">of<tspan x="25.156px " y="151.428px "> </tspan>the screens and <tspan x="69.351px " y="151.428px ">t</tspan>he trivial <tspan x="94.781px " y="151.428px ">v</tspan>irtual “hyperconnec</text><text x="148.407px" y="151.428px" style="font-family:'AvenirNext-Regular', 'Avenir Next', sans-serif;font-size:5.714px;fill:#231f20;">-</text><text x="19.842px" y="158.283px" style="font-family:'AvenirNext-Regular', 'Avenir Next', sans-serif;font-size:5.714px;fill:#231f20;">tivity” <tspan x="36.328px " y="158.283px ">m</tspan>ak<tspan x="47.237px 50.505px 52.723px " y="158.283px 158.283px 158.283px ">e u</tspan>s <tspan x="60.797px " y="158.283px ">f</tspan>eel <tspan x="72.677px " y="158.283px ">l</tspan>onely<tspan x="88.22px 89.534px 91.614px 94.768px 98.1px 101.368px 103.586px " y="158.283px 158.283px 158.283px 158.283px 158.283px 158.283px 158.283px ">. The i</tspan>Phone,<tspan x="123.054px 125.271px 128.323px 130.54px " y="158.283px 158.283px 158.283px 158.283px "> a s</tspan>mooth</text><text x="19.842px" y="165.137px" style="font-family:'AvenirNext-Regular', 'Avenir Next', sans-serif;font-size:5.714px;fill:#231f20;">window <tspan x="43.42px " y="165.137px ">w</tspan>ithout <tspan x="66.048px " y="165.137px ">a</tspan>ny <tspan x="78.38px " y="165.137px ">h</tspan>aptic <tspan x="97.66px " y="165.137px ">f</tspan>eedback,<tspan x="123.3px 126.471px " y="165.137px 165.137px "> f</tspan>unctions</text><text x="19.842px" y="171.991px" style="font-family:'AvenirNext-Regular', 'Avenir Next', sans-serif;font-size:5.714px;fill:#231f20;">and <tspan x="31.991px " y="171.991px ">i</tspan>s <tspan x="38.094px " y="171.991px ">e</tspan>stablishing <tspan x="71.637px " y="171.991px ">i</tspan>tself<tspan x="83.946px 86.083px " y="171.991px 171.991px "> a</tspan>s <tspan x="93.808px 96.86px 98.997px " y="171.991px 171.991px 171.991px ">a “</tspan>multi-tool”<tspan x="127.843px 129.157px 131.226px 136.574px 139.843px 141.98px 145.031px 146.986px " y="171.991px 171.991px 171.991px 171.991px 171.991px 171.991px 171.991px 171.991px ">. We are</tspan></text><text x="19.842px" y="178.845px" style="font-family:'AvenirNext-Regular', 'Avenir Next', sans-serif;font-size:5.714px;fill:#231f20;">supposedly <tspan x="52.763px 54.734px 57.591px " y="178.845px 178.845px 178.845px ">“co</tspan>nnected” <tspan x="87.42px " y="178.845px ">b</tspan>ut <tspan x="98.831px " y="178.845px ">l</tspan>ess <tspan x="111.254px " y="178.845px ">a</tspan>nd <tspan x="123.906px " y="178.845px ">l</tspan>ess <tspan x="136.329px 138.283px " y="178.845px 178.845px ">re</tspan>ally</text><text x="19.842px" y="185.7px" style="font-family:'AvenirNext-Regular', 'Avenir Next', sans-serif;font-size:5.714px;fill:#231f20;">“<tspan x="21.814px 24.671px " y="185.7px 185.7px ">cl</tspan>ose”<tspan x="36.934px 38.248px 40.608px 45.956px 49.225px 51.653px " y="185.7px 185.7px 185.7px 185.7px 185.7px 185.7px ">. We f</tspan>eel <tspan x="63.745px 65.716px 69.207px " y="185.7px 185.7px 185.7px ">“ou</tspan>t <tspan x="76.767px 80.259px 82.082px 84.51px " y="185.7px 185.7px 185.7px 185.7px ">of t</tspan>ouch”<tspan x="100.847px 102.161px 104.453px 107.607px 110.938px " y="185.7px 185.7px 185.7px 185.7px 185.7px ">. Thi</tspan>s <tspan x="117.332px " y="185.7px ">b</tspan>ecomes <tspan x="143.869px " y="185.7px ">a</tspan>n</text><text x="19.842px" y="192.554px" style="font-family:'AvenirNext-Regular', 'Avenir Next', sans-serif;font-size:5.714px;fill:#231f20;">overwhelming <tspan x="60.84px " y="192.554px ">f</tspan>eeling <tspan x="82.548px 86.039px 87.862px 91.547px " y="192.554px 192.554px 192.554px 192.554px ">of p</tspan>owerlessness <tspan x="133.385px " y="192.554px ">i</tspan>n <tspan x="141.819px " y="192.554px ">t</tspan>he</text><text x="19.842px" y="199.408px" style="font-family:'AvenirNext-Regular', 'Avenir Next', sans-serif;font-size:5.714px;fill:#231f20;">face <tspan x="32.476px 35.967px 37.79px 39.561px " y="199.408px 199.408px 199.408px 199.408px ">of a</tspan>n <tspan x="47.703px " y="199.408px ">o</tspan>verload <tspan x="72.701px 76.192px 78.015px 79.786px " y="199.408px 199.408px 199.408px 199.408px ">of c</tspan>ontent,<tspan x="100.979px 102.75px " y="199.408px 199.408px "> t</tspan>he <tspan x="112.932px " y="199.408px ">o</tspan>verwhelming</text><text x="19.842px" y="206.262px" style="font-family:'AvenirNext-Regular', 'Avenir Next', sans-serif;font-size:5.714px;fill:#231f20;">feeling <tspan x="39.911px 43.403px 45.226px 47.271px " y="206.262px 206.262px 206.262px 206.262px ">of s</tspan>imultaneity <tspan x="80.569px " y="206.262px ">a</tspan>nd <tspan x="92.626px " y="206.262px ">d</tspan>if<tspan x="99.277px 100.963px " y="206.262px 206.262px ">fu</tspan>sion <tspan x="117.106px " y="206.262px ">i</tspan>n <tspan x="123.9px " y="206.262px ">c</tspan>ommuni-</text><text x="19.842px" y="213.116px" style="font-family:'AvenirNext-Regular', 'Avenir Next', sans-serif;font-size:5.714px;fill:#231f20;">cation.<tspan x="37.059px 39.122px 41.436px 44.59px 47.921px 51.19px 53.252px " y="213.116px 213.116px 213.116px 213.116px 213.116px 213.116px 213.116px "> “The d</tspan>igital <tspan x="71.726px " y="213.116px ">i</tspan>s <tspan x="77.754px " y="213.116px ">l</tspan>ik<tspan x="83.434px 86.702px 88.765px " y="213.116px 213.116px 213.116px ">e Q</tspan>uicksand <tspan x="118.678px 120.506px 122.569px " y="213.116px 213.116px 213.116px ">- e</tspan>verything</text><text x="19.842px" y="219.97px" style="font-family:'AvenirNext-Regular', 'Avenir Next', sans-serif;font-size:5.714px;fill:#231f20;">sticks”<tspan x="35.42px 36.735px 38.409px 43.757px 47.026px 48.769px " y="219.97px 219.97px 219.97px 219.97px 219.97px 219.97px ">. We s</tspan>ink <tspan x="60.712px " y="219.97px ">i</tspan>n <tspan x="67.203px " y="219.97px ">a</tspan>nd <tspan x="78.958px " y="219.97px ">i</tspan>rr<tspan x="84.398px 87.666px " y="219.97px 219.97px ">ev</tspan>ersibly <tspan x="109.358px " y="219.97px ">m</tspan>er<tspan x="119.627px 123.238px 126.507px 127.821px 129.427px 132.136px 135.404px " y="219.97px 219.97px 219.97px 219.97px 219.97px 219.97px 219.97px ">ge. Tec</tspan>hno-</text><text x="19.842px" y="226.824px" style="font-family:'AvenirNext-Regular', 'Avenir Next', sans-serif;font-size:5.714px;fill:#231f20;">logy <tspan x="33.71px " y="226.824px ">a</tspan>nd <tspan x="46.258px " y="226.824px ">d</tspan>igital <tspan x="65.206px " y="226.824px ">m</tspan>edia <tspan x="84.176px " y="226.824px ">o</tspan>ften <tspan x="100.221px " y="226.824px ">f</tspan>eel <tspan x="112.421px " y="226.824px ">i</tspan>ndispensable,</text><text x="19.842px" y="233.678px" style="font-family:'AvenirNext-Regular', 'Avenir Next', sans-serif;font-size:5.714px;fill:#231f20;">intuitive <tspan x="42.64px " y="233.678px ">a</tspan>nd <tspan x="54.844px " y="233.678px ">s</tspan>trangely <tspan x="80.853px " y="233.678px ">“</tspan>natur<tspan x="96.497px " y="233.678px ">a</tspan>l”<tspan x="102.514px 103.828px 105.884px 109.038px 112.369px " y="233.678px 233.678px 233.678px 233.678px 233.678px ">. The</tspan>y <tspan x="120.619px 123.671px 125.625px 128.893px 131.086px " y="233.678px 233.678px 233.678px 233.678px 233.678px ">are a</tspan>lr<tspan x="137.531px " y="233.678px ">e</tspan>ady</text><text x="19.842px" y="240.532px" style="font-family:'AvenirNext-Regular', 'Avenir Next', sans-serif;font-size:5.714px;fill:#231f20;">ﬁrmly <tspan x="36.843px " y="240.532px ">i</tspan>ntegrated <tspan x="66.544px " y="240.532px ">i</tspan>n <tspan x="73.854px " y="240.532px ">m</tspan>any <tspan x="90.619px 93.671px 95.625px " y="240.532px 240.532px 240.532px ">are</tspan>as <tspan x="107.008px 110.499px 112.322px 114.883px " y="240.532px 240.532px 240.532px 240.532px ">of e</tspan>veryday <tspan x="141.094px " y="240.532px ">l</tspan>ife.</text><text x="19.842px" y="247.386px" style="font-family:'AvenirNext-Regular', 'Avenir Next', sans-serif;font-size:5.714px;fill:#231f20;">T<tspan x="22.997px 26.328px " y="247.386px 247.386px ">he</tspan>y ar<tspan x="38.818px 42.087px " y="247.386px 247.386px ">e </tspan>part of<tspan x="60.737px 62.166px " y="247.386px 247.386px "> o</tspan>ur “survival kit<tspan x="101.803px 103.329px " y="247.386px 247.386px ">”.</tspan></text></g><g transform="matrix(0,1,-1,0,0.490625,-0.490625)"><text x="328.013px" y="-655.69px" style="font-family:'CalignaDEMORegular', 'Caligna DEMO';font-size:33.333px;fill:#231f20;">2<tspan x="345.079px 362.679px " y="-655.69px -655.69px ">/6</tspan></text></g></svg>