<?xml version="1.0" encoding="UTF-8" standalone="no"?><!DOCTYPE svg PUBLIC "-//W3C//DTD SVG 1.1//EN" "http://www.w3.org/Graphics/SVG/1.1/DTD/svg11.dtd"><svg width="100%" height="100%" viewBox="0 0 710 1182" version="1.1" xmlns="http://www.w3.org/2000/svg" xmlns:xlink="http://www.w3.org/1999/xlink" xml:space="preserve" xmlns:serif="http://www.serif.com/" style="fill-rule:evenodd;clip-rule:evenodd;stroke-linejoin:round;stroke-miterlimit:2;"><rect id="Page-5" serif:id="Page 5" x="0.981" y="0" width="708.662" height="1181.1" style="fill:none;"/><rect x="0.981" y="0" width="708.658" height="1181.1" style="fill:#231f20;"/><g transform="matrix(4.16667,0,0,4.16667,0.98125,0)"><text x="19.842px" y="112.722px" style="font-family:'AvenirNext-Regular', 'Avenir Next', sans-serif;font-size:5.714px;fill:#fff;">What <tspan x="35.859px " y="112.722px ">i</tspan>s <tspan x="42.15px 45.201px 47.527px " y="112.722px 112.722px 112.722px ">a m</tspan>odern <tspan x="70.674px " y="112.722px ">w</tspan>ay <tspan x="83.102px 86.593px 88.416px 90.741px " y="112.722px 112.722px 112.722px 112.722px ">of l</tspan>iving? <tspan x="109.769px 115.117px 118.386px 120.711px 123.762px 125.717px 128.985px 131.311px " y="112.722px 112.722px 112.722px 112.722px 112.722px 112.722px 112.722px 112.722px ">We are g</tspan>uided</text><text x="19.842px" y="119.576px" style="font-family:'AvenirNext-Regular', 'Avenir Next', sans-serif;font-size:5.714px;fill:#fff;">by the archetype <tspan x="65.046px 68.537px 70.36px " y="119.576px 119.576px 119.576px ">of </tspan>the “modern gar<tspan x="114.826px 118.466px " y="119.576px 119.576px ">de</tspan>ner<tspan x="130.517px 132.043px 133.357px 134.722px 138.619px 140.088px 142.042px 145.533px " y="119.576px 119.576px 119.576px 119.576px 119.576px 119.576px 119.576px 119.576px ">”. A rol</tspan>e</text><text x="19.842px" y="126.43px" style="font-family:'AvenirNext-Regular', 'Avenir Next', sans-serif;font-size:5.714px;fill:#fff;">that cultiva<tspan x="47.858px " y="126.43px ">t</tspan>es a “space”</text><text x="82.051px" y="126.43px" style="font-family:'AvenirNext-Regular', 'Avenir Next', sans-serif;font-size:5.714px;fill:#fff;">and tries to generate</text><text x="137.185px" y="126.43px" style="font-family:'AvenirNext-Regular', 'Avenir Next', sans-serif;font-size:5.714px;fill:#fff;">a fer<tspan x="148.539px " y="126.43px ">-</tspan></text><text x="19.842px" y="133.284px" style="font-family:'AvenirNext-Regular', 'Avenir Next', sans-serif;font-size:5.714px;fill:#fff;">tile envir<tspan x="41.978px 45.47px " y="133.284px 133.284px ">on</tspan>ment in</text><text x="69.154px" y="133.284px" style="font-family:'AvenirNext-Regular', 'Avenir Next', sans-serif;font-size:5.714px;fill:#fff;">close cooperation.<tspan x="117.26px " y="133.284px "> </tspan>Th<tspan x="125.036px " y="133.284px ">e</tspan>y</text><text x="131.834px" y="133.284px" style="font-family:'AvenirNext-Regular', 'Avenir Next', sans-serif;font-size:5.714px;fill:#fff;">dar<tspan x="140.479px 143.748px " y="133.284px 133.284px ">e </tspan>to</text><text x="19.842px" y="140.138px" style="font-family:'AvenirNext-Regular', 'Avenir Next', sans-serif;font-size:5.714px;fill:#fff;">step <tspan x="32.922px " y="140.138px ">o</tspan>utside,<tspan x="53.732px 55.566px " y="140.138px 140.138px "> l</tspan>ives <tspan x="68.863px " y="140.138px ">i</tspan>n <tspan x="75.445px " y="140.138px ">d</tspan>ialogue <tspan x="100.53px " y="140.138px ">w</tspan>ith <tspan x="113.198px " y="140.138px ">t</tspan>he <tspan x="123.443px " y="140.138px ">l</tspan>andscape</text><text x="19.842px" y="146.992px" style="font-family:'AvenirNext-Regular', 'Avenir Next', sans-serif;font-size:5.714px;fill:#fff;">and dissolves <tspan x="56.481px " y="146.992px ">o</tspan>r breaks down the <tspan x="108.37px " y="146.992px ">b</tspan>arrier between</text><text x="19.842px" y="153.846px" style="font-family:'AvenirNext-Regular', 'Avenir Next', sans-serif;font-size:5.714px;fill:#fff;">natur<tspan x="33.242px 36.51px " y="153.846px 153.846px ">e </tspan>and fellow</text><text x="65.846px" y="153.846px" style="font-family:'AvenirNext-Regular', 'Avenir Next', sans-serif;font-size:5.714px;fill:#fff;">human beings.<tspan x="104.461px 105.89px " y="153.846px 153.846px "> o</tspan>ver<tspan x="117.392px 120.249px " y="153.846px 153.846px ">co</tspan>mes</text><text x="135.471px" y="153.846px" style="font-family:'AvenirNext-Regular', 'Avenir Next', sans-serif;font-size:5.714px;fill:#fff;">them.</text><text x="19.842px" y="160.7px" style="font-family:'AvenirNext-Regular', 'Avenir Next', sans-serif;font-size:5.714px;fill:#fff;">T<tspan x="22.997px 26.328px 29.596px 31.613px " y="160.7px 160.7px 160.7px 160.7px ">he o</tspan>bjective <tspan x="57.618px " y="160.7px ">b</tspan>ecomes <tspan x="83.742px " y="160.7px ">t</tspan>he <tspan x="94.17px " y="160.7px ">c</tspan>atalyst.<tspan x="114.775px 116.792px " y="160.7px 160.7px "> I</tspan>t <tspan x="122.106px " y="160.7px ">a</tspan>lmost <tspan x="141.5px " y="160.7px ">b</tspan>e</text><text x="148.408px" y="160.7px" style="font-family:'AvenirNext-Regular', 'Avenir Next', sans-serif;font-size:5.714px;fill:#fff;">-</text><text x="19.842px" y="167.554px" style="font-family:'AvenirNext-Regular', 'Avenir Next', sans-serif;font-size:5.714px;fill:#fff;">comes a tool that “includes” a valuable plot,<tspan x="133.243px 134.671px " y="167.554px 167.554px "> a</tspan>ction</text><text x="19.842px" y="174.408px" style="font-family:'AvenirNext-Regular', 'Avenir Next', sans-serif;font-size:5.714px;fill:#fff;">or <tspan x="27.608px " y="174.408px ">i</tspan>nteraction.<tspan x="56.698px 58.778px 61.932px 65.263px 68.531px 70.749px 72.703px 75.971px 79.6px 81.554px 84.822px " y="174.408px 174.408px 174.408px 174.408px 174.408px 174.408px 174.408px 174.408px 174.408px 174.408px 174.408px "> The repres</tspan>entational <tspan x="115.512px " y="174.408px ">b</tspan>ecomes <tspan x="141.836px " y="174.408px ">t</tspan>he</text><text x="19.842px" y="181.262px" style="font-family:'AvenirNext-Regular', 'Avenir Next', sans-serif;font-size:5.714px;fill:#fff;">trigger to come into contact with the envir<tspan x="128.906px 132.397px " y="181.262px 181.262px ">on</tspan>ment.</text><text x="51.572px" y="193.266px" style="font-family:'AvenirNext-Regular', 'Avenir Next', sans-serif;font-size:5.714px;fill:#fff;">It cultivates a r<tspan x="88.416px 91.685px " y="193.266px 193.266px ">el</tspan>ationship<tspan x="117.026px " y="193.266px ">.</tspan></text></g><g transform="matrix(0,1,-1,0,0.98125,-0.98125)"><text x="317.837px" y="-629.097px" style="font-family:'CalignaDEMORegular', 'Caligna DEMO';font-size:45.169px;fill:#231f20;">3<tspan x="342.906px 366.755px " y="-629.097px -629.097px ">/4</tspan></text></g><g transform="matrix(0,1,-1,0,0.98125,-0.98125)"><text x="327.787px" y="-655.69px" style="font-family:'CalignaDEMORegular', 'Caligna DEMO';font-size:33.333px;fill:#fff;">3<tspan x="346.287px 363.887px " y="-655.69px -655.69px ">/6</tspan></text></g></svg>