<?xml version="1.0" encoding="UTF-8" standalone="no"?><!DOCTYPE svg PUBLIC "-//W3C//DTD SVG 1.1//EN" "http://www.w3.org/Graphics/SVG/1.1/DTD/svg11.dtd"><svg width="100%" height="100%" viewBox="0 0 710 1182" version="1.1" xmlns="http://www.w3.org/2000/svg" xmlns:xlink="http://www.w3.org/1999/xlink" xml:space="preserve" xmlns:serif="http://www.serif.com/" style="fill-rule:evenodd;clip-rule:evenodd;stroke-linejoin:round;stroke-miterlimit:2;"><rect id="Page-8" serif:id="Page 8" x="0.491" y="0.742" width="708.662" height="1181.1" style="fill:none;"/><rect x="0.491" y="0.742" width="708.658" height="1181.1" style="fill:#231f20;"/><g transform="matrix(4.16667,0,0,4.16667,0.490625,0.742188)"><text x="19.842px" y="128.608px" style="font-family:'AvenirNext-Regular', 'Avenir Next', sans-serif;font-size:5.714px;fill:#fff;">W<tspan x="25.191px 28.459px 30.859px 33.91px 35.865px 39.133px 41.533px " y="128.608px 128.608px 128.608px 128.608px 128.608px 128.608px 128.608px ">e are c</tspan>urious <tspan x="62.943px " y="128.608px ">a</tspan>bout <tspan x="80.657px " y="128.608px ">i</tspan>tems <tspan x="97.147px " y="128.608px ">t</tspan>hat <tspan x="109.495px " y="128.608px ">b</tspan>ecome <tspan x="133.465px " y="128.608px ">c</tspan>arrier</text><text x="19.842px" y="135.462px" style="font-family:'AvenirNext-Regular', 'Avenir Next', sans-serif;font-size:5.714px;fill:#fff;">of<tspan x="25.156px 27.191px " y="135.462px 135.462px "> a</tspan>spirational <tspan x="59.393px " y="135.462px ">q</tspan>ualities.<tspan x="82.62px 84.654px " y="135.462px 135.462px "> I</tspan>n <tspan x="91.494px " y="135.462px ">t</tspan>his <tspan x="102.636px " y="135.462px ">s</tspan>peciﬁc <tspan x="124.354px " y="135.462px ">e</tspan>xhibition</text><text x="19.842px" y="142.316px" style="font-family:'AvenirNext-Regular', 'Avenir Next', sans-serif;font-size:5.714px;fill:#fff;">context <tspan x="41.11px " y="142.316px ">w</tspan>e <tspan x="50.618px " y="142.316px ">s</tspan>har<tspan x="61.492px 64.76px 66.737px " y="142.316px 142.316px 142.316px ">e t</tspan>he <tspan x="77.125px 80.753px 82.708px 86.199px " y="142.316px 142.316px 142.316px 142.316px ">prot</tspan>otype <tspan x="104.975px 108.466px 110.289px 112.266px " y="142.316px 142.316px 142.316px 142.316px ">of t</tspan>he <tspan x="122.654px " y="142.316px ">„</tspan>Spout<tspan x="140.476px 142.687px 144.664px " y="142.316px 142.316px 142.316px ">“ a</tspan>s</text><text x="19.842px" y="149.17px" style="font-family:'AvenirNext-Regular', 'Avenir Next', sans-serif;font-size:5.714px;fill:#fff;">the <tspan x="30.514px " y="149.17px ">ﬁ</tspan>rst <tspan x="42.287px 45.778px 47.601px 49.862px 52.913px 55.173px " y="149.17px 149.17px 149.17px 149.17px 149.17px 149.17px ">of a l</tspan>ine <tspan x="66.89px 70.381px 72.204px 74.464px " y="149.17px 149.17px 149.17px 149.17px ">of c</tspan>onceptualized <tspan x="116.629px " y="149.17px ">i</tspan>dentity <tspan x="138.385px " y="149.17px ">m</tspan>ar</text><text x="148.401px" y="149.17px" style="font-family:'AvenirNext-Regular', 'Avenir Next', sans-serif;font-size:5.714px;fill:#fff;">-</text><text x="79.046px" y="156.024px" style="font-family:'AvenirNext-Regular', 'Avenir Next', sans-serif;font-size:5.714px;fill:#fff;">k<tspan x="81.857px 85.125px " y="156.024px 156.024px ">er</tspan>s.</text><text x="19.843px" y="169.738px" style="font-family:'AvenirNext-Regular', 'Avenir Next', sans-serif;font-size:5.714px;fill:#fff;">In doing so,<tspan x="50.269px 51.698px " y="169.738px 169.738px "> w</tspan>e draw at<tspan x="79.765px " y="169.738px ">t</tspan>ention to</text><text x="105.814px" y="169.738px" style="font-family:'AvenirNext-Regular', 'Avenir Next', sans-serif;font-size:5.714px;fill:#fff;">the semantic and</text><text x="19.843px" y="176.592px" style="font-family:'AvenirNext-Regular', 'Avenir Next', sans-serif;font-size:5.714px;fill:#fff;">formal potential of<tspan x="68.126px " y="176.592px "> </tspan>wa<tspan x="76.857px " y="176.592px ">t</tspan>ering cans (cultivating land)</text><text x="19.843px" y="183.446px" style="font-family:'AvenirNext-Regular', 'Avenir Next', sans-serif;font-size:5.714px;fill:#fff;">and <tspan x="31.636px " y="183.446px ">d</tspan>ecanters <tspan x="59.229px " y="183.446px ">(</tspan>cultvating <tspan x="88.107px " y="183.446px ">b</tspan>ody),<tspan x="104.695px 106.478px " y="183.446px 183.446px "> a</tspan>s <tspan x="113.849px " y="183.446px ">a</tspan>n <tspan x="122.002px " y="183.446px ">o</tspan>bject <tspan x="140.287px " y="183.446px ">t</tspan>hat</text><text x="19.843px" y="190.3px" style="font-family:'AvenirNext-Regular', 'Avenir Next', sans-serif;font-size:5.714px;fill:#fff;">r<tspan x="21.797px 25.065px " y="190.3px 190.3px ">ev</tspan>olves/ forms around water as the <tspan x="114.236px " y="190.3px ">s</tspan>har<tspan x="125.109px 128.378px " y="190.3px 190.3px ">ed</tspan> essen</text><text x="148.408px" y="190.3px" style="font-family:'AvenirNext-Regular', 'Avenir Next', sans-serif;font-size:5.714px;fill:#fff;">-</text><text x="19.842px" y="197.154px" style="font-family:'AvenirNext-Regular', 'Avenir Next', sans-serif;font-size:5.714px;fill:#fff;">ce <tspan x="27.642px 31.133px 32.956px 34.63px " y="197.154px 197.154px 197.154px 197.154px ">of l</tspan>and <tspan x="47.756px " y="197.154px ">a</tspan>nd <tspan x="59.441px " y="197.154px ">b</tspan>ody<tspan x="72.794px 74.28px 77.32px 80.474px 83.805px 87.074px 88.748px " y="197.154px 197.154px 197.154px 197.154px 197.154px 197.154px 197.154px ">.	The a</tspan>ct <tspan x="98.142px 100.256px 101.93px " y="197.154px 197.154px 197.154px ">/ p</tspan>lot	<tspan x="115.65px 118.644px 120.387px " y="197.154px 197.154px 197.154px ">att</tspan>ached <tspan x="140.02px " y="197.154px ">t</tspan>o <tspan x="146.997px " y="197.154px ">i</tspan>t</text><text x="19.842px" y="204.008px" style="font-family:'AvenirNext-Regular', 'Avenir Next', sans-serif;font-size:5.714px;fill:#fff;">gets r<tspan x="34.453px 37.722px " y="204.008px 204.008px ">ed</tspan>esicover<tspan x="62.954px 66.223px " y="204.008px 204.008px ">ed</tspan> - the</text><text x="83.724px" y="204.008px" style="font-family:'AvenirNext-Regular', 'Avenir Next', sans-serif;font-size:5.714px;fill:#fff;">T<tspan x="86.433px 89.924px " y="204.008px 204.008px ">oo</tspan>l gets r<tspan x="110.894px 114.163px " y="204.008px 204.008px ">ei</tspan>nterpr<tspan x="131.63px 134.899px " y="204.008px 204.008px ">et</tspan>ed as</text><text x="19.842px" y="210.862px" style="font-family:'AvenirNext-Regular', 'Avenir Next', sans-serif;font-size:5.714px;fill:#fff;">an „avant gar<tspan x="53.923px 57.563px " y="210.862px 210.862px ">de</tspan>“ accessoiry</text><text x="92.107px" y="210.862px" style="font-family:'AvenirNext-Regular', 'Avenir Next', sans-serif;font-size:5.714px;fill:#fff;">within the fashion con</text><text x="148.902px" y="210.862px" style="font-family:'AvenirNext-Regular', 'Avenir Next', sans-serif;font-size:5.714px;fill:#fff;">-</text><text x="19.842px" y="217.716px" style="font-family:'AvenirNext-Regular', 'Avenir Next', sans-serif;font-size:5.714px;fill:#fff;">text.<tspan x="30.779px 32.288px " y="217.716px 217.716px "> D</tspan>rawing attention <tspan x="80.479px " y="217.716px ">t</tspan>o /exaggarting <tspan x="122.397px " y="217.716px ">n</tspan>ourishing</text><text x="19.842px" y="224.57px" style="font-family:'AvenirNext-Regular', 'Avenir Next', sans-serif;font-size:5.714px;fill:#fff;">gestur<tspan x="36.345px 39.613px " y="224.57px 224.57px ">es</tspan> and the human impulse of<tspan x="111.764px 113.192px " y="224.57px 224.57px "> t</tspan>aking car<tspan x="138.619px 141.888px 143.202px 144.631px " y="224.57px 224.57px 224.57px 224.57px ">e. I</tspan>ts</text><text x="19.842px" y="231.424px" style="font-family:'AvenirNext-Regular', 'Avenir Next', sans-serif;font-size:5.714px;fill:#fff;">semantic <tspan x="45.881px " y="231.424px ">q</tspan>ualities <tspan x="70.514px 73.566px 75.52px 78.788px 81.508px " y="231.424px 231.424px 231.424px 231.424px 231.424px ">are c</tspan>omplemented <tspan x="124.312px " y="231.424px ">b</tspan>y <tspan x="133.46px " y="231.424px ">f</tspan>ormal</text><text x="19.842px" y="238.278px" style="font-family:'AvenirNext-Regular', 'Avenir Next', sans-serif;font-size:5.714px;fill:#fff;">and <tspan x="33.073px " y="238.278px ">m</tspan>ethodical <tspan x="65.657px " y="238.278px ">i</tspan>nvestigation <tspan x="102.115px " y="238.278px ">t</tspan>hr<tspan x="109.211px 112.703px " y="238.278px 238.278px ">ou</tspan>gh <tspan x="126.184px " y="238.278px ">3</tspan>d <tspan x="136.358px " y="238.278px ">s</tspan>can/</text><text x="53.235px" y="245.132px" style="font-family:'AvenirNext-Regular', 'Avenir Next', sans-serif;font-size:5.714px;fill:#fff;">modelling	<tspan x="82.778px " y="245.132px ">a</tspan>nd 3D print.</text></g><g transform="matrix(4.16667,0,0,4.16667,0.490625,0.742188)"><text x="19.842px" y="112.723px" style="font-family:'CalignaDEMORegular', 'Caligna DEMO';font-size:7.62px;fill:#fff;">1<tspan x="22.586px " y="112.723px ">.</tspan></text><text x="24.14px" y="112.723px" style="font-family:'CalignaDEMORegular', 'Caligna DEMO';font-size:7.62px;fill:#fff;">0</text><text x="31.981px" y="112.723px" style="font-family:'CalignaDEMORegular', 'Caligna DEMO';font-size:7.62px;fill:#fff;">s<tspan x="35.608px 39.921px 44.181px 48.463px " y="112.723px 112.723px 112.723px 112.723px ">pout</tspan></text></g><g transform="matrix(0,1,-1,0,1.23281,0.251563)"><text x="326.446px" y="-654.948px" style="font-family:'CalignaDEMORegular', 'Caligna DEMO';font-size:33.333px;fill:#fff;">4<tspan x="346.646px 364.246px " y="-654.948px -654.948px ">/6</tspan></text></g></svg>