<?xml version="1.0" encoding="UTF-8" standalone="no"?><!DOCTYPE svg PUBLIC "-//W3C//DTD SVG 1.1//EN" "http://www.w3.org/Graphics/SVG/1.1/DTD/svg11.dtd"><svg width="100%" height="100%" viewBox="0 0 710 1182" version="1.1" xmlns="http://www.w3.org/2000/svg" xmlns:xlink="http://www.w3.org/1999/xlink" xml:space="preserve" xmlns:serif="http://www.serif.com/" style="fill-rule:evenodd;clip-rule:evenodd;stroke-miterlimit:10;"><rect id="Page-9" serif:id="Page 9" x="0.736" y="0.742" width="708.662" height="1181.1" style="fill:none;"/><rect x="0.736" y="0.742" width="708.658" height="1181.1" style="fill:#231f20;"/><path d="M597.341,472.204l29.38,-0" style="fill:none;fill-rule:nonzero;stroke:#fff;stroke-width:1.19px;"/><path d="M83.413,500.774l79.371,-0" style="fill:none;fill-rule:nonzero;stroke:#fff;stroke-width:1.19px;"/><path d="M282.268,500.774l225.546,-0" style="fill:none;fill-rule:nonzero;stroke:#fff;stroke-width:1.19px;"/><g transform="matrix(4.16667,0,0,4.16667,0.735938,0.742188)"><text x="19.842px" y="112.722px" style="font-family:'AvenirNext-Regular', 'Avenir Next', sans-serif;font-size:5.714px;fill:#fff;">T<tspan x="22.997px 26.328px 28.282px 31.773px " y="112.722px 112.722px 112.722px 112.722px ">hrou</tspan>gh <tspan x="43.784px " y="112.722px ">t</tspan>he <tspan x="53.944px " y="112.722px ">d</tspan>igital <tspan x="72.103px " y="112.722px ">l</tspan>ens <tspan x="84.417px " y="112.722px ">w</tspan>e <tspan x="93.696px " y="112.722px ">e</tspan>xplor<tspan x="110.21px 113.478px 115.227px " y="112.722px 112.722px 112.722px ">e n</tspan>ot <tspan x="125.597px " y="112.722px ">o</tspan>nly <tspan x="138.385px 141.437px 143.185px 145.139px 148.408px " y="112.722px 112.722px 112.722px 112.722px 112.722px ">a re-</tspan></text><text x="19.842px" y="119.576px" style="font-family:'AvenirNext-Regular', 'Avenir Next', sans-serif;font-size:5.714px;fill:#fff;">turn <tspan x="31.968px " y="119.576px ">t</tspan>o <tspan x="38.887px " y="119.576px ">n</tspan>atur<tspan x="52.287px 55.555px 57.172px " y="119.576px 119.576px 119.576px ">e b</tspan>ut <tspan x="67.56px 70.611px 72.228px " y="119.576px 119.576px 119.576px ">a n</tspan>ovel <tspan x="88.153px " y="119.576px ">a</tspan>ppr<tspan x="100.416px 103.907px " y="119.576px 119.576px ">oa</tspan>ch <tspan x="114.763px " y="119.576px ">t</tspan>o	<tspan x="123.3px 125.271px 128.505px " y="119.576px 119.576px 119.576px ">“ex</tspan>tended</text><text x="19.842px" y="126.43px" style="font-family:'AvenirNext-Regular', 'Avenir Next', sans-serif;font-size:5.714px;fill:#fff;">envir<tspan x="32.6px 36.091px " y="126.43px 126.43px ">on</tspan>ment<tspan x="52.991px 55.202px 57.218px 58.532px 60.549px " y="126.43px 126.43px 126.43px 126.43px 126.43px ">” . I</tspan>n <tspan x="67.37px 70.421px 72.438px 76.066px 78.019px 81.51px " y="126.43px 126.43px 126.43px 126.43px 126.43px 126.43px ">a proc</tspan>ess <tspan x="94.725px 98.216px 100.038px 102.055px 104.025px 107.665px " y="126.43px 126.43px 126.43px 126.43px 126.43px 126.43px ">of “di</tspan>gital <tspan x="122.45px " y="126.43px ">p</tspan>lant <tspan x="137.715px " y="126.43px ">p</tspan>ick</text><text x="148.405px" y="126.43px" style="font-family:'AvenirNext-Regular', 'Avenir Next', sans-serif;font-size:5.714px;fill:#fff;">-</text><text x="19.842px" y="133.284px" style="font-family:'AvenirNext-Regular', 'Avenir Next', sans-serif;font-size:5.714px;fill:#fff;">ing” we collect/ pick up or<tspan x="87.588px 91.199px " y="133.284px 133.284px ">ga</tspan>nic states / r<tspan x="125.169px 128.437px " y="133.284px 133.284px ">ef</tspan>er<tspan x="135.345px 138.614px " y="133.284px 133.284px ">en</tspan>ces</text><text x="19.842px" y="140.138px" style="font-family:'AvenirNext-Regular', 'Avenir Next', sans-serif;font-size:5.714px;fill:#fff;">data <tspan x="33.573px " y="140.138px ">i</tspan>n <tspan x="40.556px " y="140.138px ">t</tspan>he <tspan x="51.201px " y="140.138px ">B</tspan>otanical <tspan x="77.52px " y="140.138px ">G</tspan>ar<tspan x="86.976px 90.616px " y="140.138px 140.138px ">de</tspan>n <tspan x="99.439px " y="140.138px ">B</tspan>asel.<tspan x="114.684px 116.918px " y="140.138px 140.138px "> I</tspan>n <tspan x="123.958px " y="140.138px ">c</tspan>ollabora</text><text x="148.408px" y="140.138px" style="font-family:'AvenirNext-Regular', 'Avenir Next', sans-serif;font-size:5.714px;fill:#fff;">-</text><text x="19.842px" y="146.992px" style="font-family:'AvenirNext-Regular', 'Avenir Next', sans-serif;font-size:5.714px;fill:#fff;">tion <tspan x="32.808px " y="146.992px ">w</tspan>ith <tspan x="46.555px " y="146.992px ">i</tspan>ndustrial <tspan x="73.503px " y="146.992px ">d</tspan>esigner <tspan x="99.547px " y="146.992px ">M</tspan>artin <tspan x="119.123px " y="146.992px ">S</tspan>iegrist,<tspan x="139.802px 142.716px " y="146.992px 146.992px "> w</tspan>e</text><text x="19.842px" y="153.846px" style="font-family:'AvenirNext-Regular', 'Avenir Next', sans-serif;font-size:5.714px;fill:#fff;">had <tspan x="32.39px " y="153.846px ">t</tspan>he <tspan x="43.327px " y="153.846px ">c</tspan>hance <tspan x="64.537px " y="153.846px ">t</tspan>o <tspan x="72.366px " y="153.846px ">d</tspan>igitally <tspan x="95.53px " y="153.846px ">s</tspan>can <tspan x="109.821px " y="153.846px ">s</tspan>elected <tspan x="134.437px " y="153.846px ">p</tspan>lants</text><text x="19.842px" y="160.7px" style="font-family:'AvenirNext-Regular', 'Avenir Next', sans-serif;font-size:5.714px;fill:#fff;">using <tspan x="36.327px " y="160.7px ">t</tspan>he <tspan x="47.007px " y="160.7px ">3</tspan>d-scanner <tspan x="78.468px 80.268px 84.268px " y="160.7px 160.7px 160.7px ">“Ar</tspan>tec <tspan x="96.461px 99.272px 102.541px 106.032px 107.558px 108.872px 111.072px " y="160.7px 160.7px 160.7px 160.7px 160.7px 160.7px 160.7px ">Leo”. W</tspan>ithout <tspan x="134.088px " y="160.7px ">t</tspan>aking</text><text x="19.842px" y="167.554px" style="font-family:'AvenirNext-Regular', 'Avenir Next', sans-serif;font-size:5.714px;fill:#fff;">away <tspan x="35.339px " y="167.554px ">a</tspan>nything <tspan x="60.343px 62.029px 63.983px 67.474px 72.52px 74.863px " y="167.554px 167.554px 167.554px 167.554px 167.554px 167.554px ">from n</tspan>atur<tspan x="88.262px 91.53px 92.845px 95.187px " y="167.554px 167.554px 167.554px 167.554px ">e, w</tspan>e <tspan x="105.061px " y="167.554px ">w</tspan>er<tspan x="114.546px 117.815px 120.157px " y="167.554px 167.554px 167.554px ">e a</tspan>ble <tspan x="133.9px " y="167.554px ">t</tspan>o <tspan x="141.545px " y="167.554px ">g</tspan>et</text><text x="19.842px" y="174.408px" style="font-family:'AvenirNext-Regular', 'Avenir Next', sans-serif;font-size:5.714px;fill:#fff;">up <tspan x="28.351px " y="174.408px ">c</tspan>lose <tspan x="43.504px " y="174.408px ">a</tspan>nd <tspan x="55.075px " y="174.408px ">i</tspan>ndulge <tspan x="76.663px " y="174.408px ">i</tspan>n <tspan x="82.971px " y="174.408px ">n</tspan>atur<tspan x="96.37px 99.639px 100.953px 102.513px " y="174.408px 174.408px 174.408px 174.408px ">e. D</tspan>igitally <tspan x="125.397px " y="174.408px ">c</tspan>aptur<tspan x="142.019px 145.288px " y="174.408px 174.408px ">ed</tspan>,</text><text x="19.842px" y="181.262px" style="font-family:'AvenirNext-Regular', 'Avenir Next', sans-serif;font-size:5.714px;fill:#fff;">we <tspan x="29.251px " y="181.262px ">c</tspan>an <tspan x="40.356px " y="181.262px ">n</tspan>ow <tspan x="53.308px 56.936px 58.89px 62.381px " y="181.262px 181.262px 181.262px 181.262px ">proc</tspan>ess <tspan x="75.458px " y="181.262px ">t</tspan>his <tspan x="86.443px " y="181.262px ">d</tspan>ata <tspan x="99.817px " y="181.262px ">i</tspan>nﬁnitely <tspan x="123.606px " y="181.262px ">a</tspan>nd <tspan x="135.495px 137.449px 140.717px " y="181.262px 181.262px 181.262px ">rel</tspan>ate</text><text x="19.842px" y="188.116px" style="font-family:'AvenirNext-Regular', 'Avenir Next', sans-serif;font-size:5.714px;fill:#fff;">it <tspan x="25.75px " y="188.116px ">t</tspan>o <tspan x="33.721px " y="188.116px ">t</tspan>he <tspan x="44.8px " y="188.116px ">h</tspan>uman <tspan x="65.535px " y="188.116px ">b</tspan>ody <tspan x="81.762px " y="188.116px ">t</tspan>hr<tspan x="88.858px 92.349px " y="188.116px 188.116px ">ou</tspan>gh <tspan x="105.279px " y="188.116px ">s</tspan>caling,<tspan x="124.837px 127.505px " y="188.116px 188.116px "> m</tspan>ultiply</text><text x="148.406px" y="188.116px" style="font-family:'AvenirNext-Regular', 'Avenir Next', sans-serif;font-size:5.714px;fill:#fff;">-</text><text x="19.842px" y="194.97px" style="font-family:'AvenirNext-Regular', 'Avenir Next', sans-serif;font-size:5.714px;fill:#fff;">ing,<tspan x="29.516px 31.985px " y="194.97px 194.97px "> m</tspan>orphing.	<tspan x="64.15px " y="194.97px ">D</tspan>igital <tspan x="83.715px " y="194.97px ">p</tspan>lant <tspan x="99.434px " y="194.97px ">p</tspan>icking <tspan x="121.09px " y="194.97px ">i</tspan>s <tspan x="127.524px " y="194.97px ">f</tspan>ollowed</text><text x="19.842px" y="201.824px" style="font-family:'AvenirNext-Regular', 'Avenir Next', sans-serif;font-size:5.714px;fill:#fff;">by <tspan x="28.676px " y="201.824px ">“</tspan>industrial <tspan x="57.326px " y="201.824px ">d</tspan>e-plugging”<tspan x="91.559px 92.873px 95.21px 100.558px 103.826px 106.232px " y="201.824px 201.824px 201.824px 201.824px 201.824px 201.824px ">. We s</tspan>our<tspan x="117.534px 120.391px 123.66px 126.065px " y="201.824px 201.824px 201.824px 201.824px ">ce a</tspan>nd <tspan x="138.482px " y="201.824px ">s</tspan>can</text><text x="19.842px" y="208.678px" style="font-family:'AvenirNext-Regular', 'Avenir Next', sans-serif;font-size:5.714px;fill:#fff;">car <tspan x="29.882px " y="208.678px ">p</tspan>arts,<tspan x="44.212px 46.286px " y="208.678px 208.678px "> t</tspan>ir<tspan x="51.48px 54.749px 57.286px 58.6px 60.674px 62.36px 64.314px 67.805px " y="208.678px 208.678px 208.678px 208.678px 208.678px 208.678px 208.678px 208.678px ">es, fron</tspan>t <tspan x="75.01px " y="208.678px ">l</tspan>ights,<tspan x="90.484px 92.558px " y="208.678px 208.678px "> w</tspan>indshields <tspan x="125.464px 127.293px 129.367px " y="208.678px 208.678px 208.678px ">- c</tspan>ars <tspan x="141.943px 144.994px 146.949px " y="208.678px 208.678px 208.678px ">are</tspan></text><text x="19.842px" y="215.532px" style="font-family:'AvenirNext-Regular', 'Avenir Next', sans-serif;font-size:5.714px;fill:#fff;">deconstructed <tspan x="59.355px " y="215.532px ">i</tspan>n <tspan x="65.737px " y="215.532px ">t</tspan>heir <tspan x="79.268px " y="215.532px ">i</tspan>deal/r<tspan x="96.13px 99.621px " y="215.532px 215.532px ">ol</tspan>e <tspan x="105.964px " y="215.532px ">a</tspan>s <tspan x="113.186px " y="215.532px ">f</tspan>ormer <tspan x="132.425px " y="215.532px ">l</tspan>uxury/</text><text x="19.842px" y="222.386px" style="font-family:'AvenirNext-Regular', 'Avenir Next', sans-serif;font-size:5.714px;fill:#fff;">status <tspan x="36.945px " y="222.386px ">s</tspan>ymbol.<tspan x="57.201px 59.155px 62.309px 65.64px 68.909px 71px " y="222.386px 222.386px 222.386px 222.386px 222.386px 222.386px "> The e</tspan>lements <tspan x="97.05px 100.101px 102.056px 105.324px 107.415px " y="222.386px 222.386px 222.386px 222.386px 222.386px ">are d</tspan>ecoupled <tspan x="138.059px 139.745px 141.699px 145.191px " y="222.386px 222.386px 222.386px 222.386px ">from</tspan></text><text x="19.842px" y="229.24px" style="font-family:'AvenirNext-Regular', 'Avenir Next', sans-serif;font-size:5.714px;fill:#fff;">the <tspan x="30.453px 32.408px 35.899px " y="229.24px 229.24px 229.24px ">roa</tspan>d <tspan x="44.79px " y="229.24px ">a</tspan>nd <tspan x="57.001px " y="229.24px ">t</tspan>he <tspan x="67.612px " y="229.24px ">o</tspan>bsession <tspan x="96.062px " y="229.24px ">w</tspan>ith <tspan x="109.095px " y="229.24px ">e</tspan>go <tspan x="121.666px " y="229.24px ">a</tspan>nd <tspan x="133.877px " y="229.24px ">s</tspan>peed</text><text x="19.842px" y="236.094px" style="font-family:'AvenirNext-Regular', 'Avenir Next', sans-serif;font-size:5.714px;fill:#fff;">and <tspan x="32.23px 34.185px " y="236.094px 236.094px ">re</tspan>arranged <tspan x="63.783px 65.897px 68.274px 70.229px 73.497px " y="236.094px 236.094px 236.094px 236.094px 236.094px ">/ re-</tspan>collaged <tspan x="100.501px " y="236.094px ">i</tspan>nto <tspan x="112.929px " y="236.094px ">d</tspan>if<tspan x="119.58px 121.266px 124.534px 126.489px 129.757px " y="236.094px 236.094px 236.094px 236.094px 236.094px ">feren</tspan>t/ <tspan x="139.379px " y="236.094px ">n</tspan>ew</text><text x="21.968px" y="242.948px" style="font-family:'AvenirNext-Regular', 'Avenir Next', sans-serif;font-size:5.714px;fill:#fff;">identity mark<tspan x="55.858px 59.126px " y="242.948px 242.948px ">er</tspan>s - into an updated sta<tspan x="118.758px " y="242.948px ">t</tspan>us symbol.</text></g><g transform="matrix(0,1,-1,0,1.47813,0.00625)"><text x="328.174px" y="-654.948px" style="font-family:'CalignaDEMORegular', 'Caligna DEMO';font-size:33.333px;fill:#fff;">5<tspan x="345.408px 363.008px " y="-654.948px -654.948px ">/6</tspan></text></g></svg>